<?xml version="1.0" encoding="UTF-8" standalone="no"?>
<!-- Created with Inkscape (http://www.inkscape.org/) -->

<svg
   xmlns:dc="http://purl.org/dc/elements/1.1/"
   xmlns:cc="http://creativecommons.org/ns#"
   xmlns:rdf="http://www.w3.org/1999/02/22-rdf-syntax-ns#"
   xmlns:svg="http://www.w3.org/2000/svg"
   xmlns="http://www.w3.org/2000/svg"
   xmlns:sodipodi="http://sodipodi.sourceforge.net/DTD/sodipodi-0.dtd"
   xmlns:inkscape="http://www.inkscape.org/namespaces/inkscape"
   width="1500"
   height="860"
   id="svg2"
   version="1.1"
   inkscape:version="0.48.4 r9939"
   sodipodi:docname="kresba.svg">
  <defs
     id="defs4" />
  <sodipodi:namedview
     id="base"
     pagecolor="#ffffff"
     bordercolor="#666666"
     borderopacity="1.0"
     inkscape:pageopacity="0.0"
     inkscape:pageshadow="2"
     inkscape:zoom="0.175"
     inkscape:cx="741.49147"
     inkscape:cy="813.5315"
     inkscape:document-units="px"
     inkscape:current-layer="g3013"
     showgrid="false"
     inkscape:window-width="1406"
     inkscape:window-height="977"
     inkscape:window-x="256"
     inkscape:window-y="83"
     inkscape:window-maximized="0"
     showguides="true"
     inkscape:guide-bbox="true" />
  <metadata
     id="metadata7">
    <rdf:RDF>
      <cc:Work
         rdf:about="">
        <dc:format>image/svg+xml</dc:format>
        <dc:type
           rdf:resource="http://purl.org/dc/dcmitype/StillImage" />
        <dc:title />
      </cc:Work>
    </rdf:RDF>
  </metadata>
  <g
     inkscape:label="Vrstva 1"
     inkscape:groupmode="layer"
     id="layer1"
     transform="translate(0,-192.36218)">
    <g
       id="g3013"
       transform="translate(223.78572,-400.00002)">
      <path
         style="fill:#e771a2"
         d="m -141.03858,794.13321 c 94.02572,343.19089 47.01286,171.59544 0,0 z m 355.41346,231.03629 c -2.22527,-1.8895 -5.1606,-11.8374 -5.1606,-17.4893 0,-4.6779 2.04705,-6.2266 11.38155,-8.61072 4.33486,-1.10719 8.26771,-2.39922 8.73968,-2.87119 0.69433,-0.69433 -7.37053,-42.37843 -20.6591,-106.77877 -2.23186,-10.81628 -2.67706,-11.19154 -10.84355,-9.14019 -9.81921,2.46651 -12.96948,2.20031 -15.95538,-1.34822 -3.2551,-3.86847 -5.31386,-12.82345 -4.08057,-17.74925 1.29428,-5.16942 4.51808,-6.67938 21.65439,-10.14241 11.84871,-2.39448 15.42127,-2.77695 18.35986,-1.96557 4.26667,1.17809 7.89346,4.74951 9.33496,9.19246 0.75044,2.31298 20.8391,94.21876 27.73345,126.88075 0.95319,4.51573 2.31532,4.94723 10.08102,3.19352 6.37092,-1.43874 7.31313,-1.44171 10.0398,-0.0317 7.91692,4.094 9.90086,21.82899 2.85343,25.50769 -2.71463,1.417 -55.07256,13.1029 -58.70676,13.1029 -1.49117,0 -3.63865,-0.7875 -4.77218,-1.75 z m 89.30468,-17.2015 c -1.11909,-0.4536 -2.54658,-1.4415 -3.1722,-2.1953 -1.27985,-1.5422 -4.29308,-13.71462 -4.29308,-17.34265 0,-3.4711 3.74227,-5.84833 12.43113,-7.89674 4.24042,-0.99967 7.9409,-2.4197 8.22329,-3.15561 0.46286,-1.2062 -9.24819,-51.43915 -11.75618,-60.81192 -0.9251,-3.45723 -1.30731,-3.8045 -3.71472,-3.37512 -1.47594,0.26325 -5.91514,1.07124 -9.8649,1.79553 -5.62397,1.0313 -7.74969,1.05795 -9.80196,0.12288 -3.54448,-1.61498 -5.66026,-7.14234 -5.70504,-14.90415 -0.0432,-7.48024 2.06583,-10.63677 8.21265,-12.29194 10.21604,-2.75089 28.47744,-5.90709 30.82924,-5.32835 4.03175,0.99216 7.08095,3.30747 8.8428,6.71451 0.87675,1.69544 5.49497,20.51984 10.26272,41.832 4.76775,21.31216 8.98265,39.06339 9.36643,39.44717 0.38378,0.38378 4.3303,0.10788 8.77005,-0.61312 7.57701,-1.23048 8.23583,-1.19145 10.73838,0.63624 3.73834,2.73024 6.38639,8.60054 6.47312,14.34985 0.0849,5.62496 -1.54984,9.30222 -4.7919,10.7794 -2.2389,1.02011 -56.38135,13.24792 -58.11695,13.12542 -0.49399,-0.035 -1.81378,-0.4345 -2.93288,-0.8881 z m 98.52825,-20.91869 c -8.10047,-2.6713 -14.17647,-8.06868 -17.58814,-15.6237 -1.84833,-4.09309 -9.97606,-38.8224 -15.41205,-65.85483 l -1.17613,-5.84873 -3.65861,0.58108 c -10.60412,1.68422 -15.73463,1.83208 -16.84787,0.48553 -1.38291,-1.67273 -4.31073,-12.69232 -4.31073,-16.22453 0,-3.80818 3.36621,-6.27385 11.17924,-8.18854 3.83971,-0.94097 7.19409,-2.26538 7.45417,-2.94314 0.26008,-0.67776 -1.35104,-9.29859 -3.58027,-19.15741 -4.9456,-21.87203 -5.11594,-26.00628 -1.2424,-30.15292 4.05379,-4.33959 10.2085,-5.98923 15.44318,-4.1392 2.2357,0.79013 4.89112,2.5616 5.90095,3.9366 1.11103,1.5128 3.53105,10.49154 6.12849,22.7379 2.36084,11.13084 4.72538,20.66704 5.25454,21.19154 0.61092,0.60556 5.27113,-0.0142 12.76733,-1.69794 8.58819,-1.92901 12.26708,-2.37119 13.5,-1.62264 4.66247,2.83075 7.46571,16.54234 4.07588,19.93652 -0.89039,0.89153 -6.74039,2.97754 -13,4.63557 -6.25961,1.65802 -11.72316,3.33514 -12.14122,3.72693 -1.11862,1.04832 10.05129,53.84826 12.4688,58.93983 3.84806,8.10447 12.22428,10.43276 20.36642,5.66114 4.15652,-2.43588 8.42489,-7.83764 8.42489,-10.66195 0,-1.07118 -1.48393,-1.40848 -6.07992,-1.38197 -5.62264,0.0324 -6.29956,-0.21056 -9,-3.23071 -4.08303,-4.56641 -4.11117,-10.8696 -0.0687,-15.39388 2.47095,-2.76548 3.63829,-3.24632 8.75,-3.60428 4.95343,-0.34687 6.45,-0.0383 9.33937,1.92544 9.30098,6.32146 12.98363,28.84534 6.99302,42.77089 -2.88315,6.70205 -11.10508,14.22948 -18.68708,17.10859 -6.19823,2.35365 -20.79004,3.56061 -25.25313,2.08881 z m 88.50647,-18.04304 c -5.78464,-1.6081 -8.4302,-3.02889 -12.52014,-6.72391 -7.23348,-6.53502 -7.8774,-8.5339 -18.02546,-55.95536 -2.81388,-13.14911 -5.41724,-24.20215 -5.78527,-24.5623 -0.36802,-0.36016 -4.41118,0.0689 -8.9848,0.95346 -6.01377,1.16308 -8.78101,1.31475 -9.99673,0.5479 -2.11161,-1.33197 -5.04577,-10.50328 -5.12651,-16.02396 -0.0777,-5.31035 2.52307,-7.53662 10.87473,-9.30896 3.32323,-0.70524 6.51426,-1.851 7.09117,-2.54614 0.75066,-0.90449 -0.25299,-7.01215 -3.52943,-21.47825 -5.08935,-22.47044 -5.05931,-24.16074 0.52454,-29.5104 2.42756,-2.32575 4.07809,-2.93079 8.95805,-3.28378 5.71351,-0.41327 6.13196,-0.2814 9.31677,2.93612 3.07769,3.10931 3.61506,4.67845 6.97549,20.36883 2.0025,9.35 3.94223,18.72343 4.31052,20.82984 0.36828,2.10641 1.32553,4.08154 2.12722,4.38918 0.80169,0.30763 5.86041,-0.43892 11.24161,-1.65901 5.3812,-1.2201 11.03645,-2.07023 12.56723,-1.88918 3.71467,0.43933 6.34906,4.23203 7.35364,10.58695 1.42513,9.01532 -0.32951,10.64909 -15.42236,14.36 -4.92265,1.21034 -9.52646,2.72125 -10.23069,3.35756 -1.03222,0.93267 -0.3028,5.89333 3.7629,25.5908 2.77382,13.43862 5.7112,26.74859 6.52749,29.5777 1.72906,5.99257 6.61724,10.9142 11.80699,11.8878 5.86805,1.10085 14.03523,-3.49936 17.27805,-9.73198 2.28968,-4.40068 1.86157,-5.12829 -2.59778,-4.41521 -8.20529,1.31208 -13.99723,-3.62288 -13.99723,-11.92619 0,-5.8676 3.58911,-9.87515 9.78094,-10.92125 12.50778,-2.11318 20.45136,8.84218 20.63814,28.46299 0.097,10.18962 -1.42988,15.97044 -5.81083,22 -4.04444,5.56642 -9.47553,9.40178 -17.11623,12.08727 -6.51726,2.29064 -17.38905,3.27908 -21.99202,1.99948 z m 61.08718,-15.99042 c -1.87998,-2.07735 -4.49483,-11.71382 -4.55156,-16.77375 -0.0494,-4.40334 3.40725,-6.83973 12.60794,-8.88669 4.13011,-0.91886 7.70494,-2.18048 7.94405,-2.80359 0.36381,-0.94809 -4.76199,-26.95255 -20.62433,-104.6323 -1.17926,-5.775 -2.71163,-11.09213 -3.40525,-11.81584 -1.04169,-1.08688 -2.31265,-1.04337 -7.30393,0.25 -12.92514,3.34924 -16.91375,1.8184 -19.699,-7.56056 -2.8601,-9.631 -1.26815,-15.71382 4.66452,-17.82302 5.25821,-1.86942 26.68968,-6.05058 31.01361,-6.05058 4.78042,0 8.90092,2.26422 11.1984,6.15355 0.9365,1.58536 6.13962,23.46186 11.56251,48.61446 17.45482,80.95948 18.29281,84.71844 19.08566,85.6123 0.44673,0.50365 4.19957,0.32513 8.77081,-0.41723 7.17691,-1.16551 8.25108,-1.12647 10.55576,0.38361 4.1777,2.73734 5.83192,6.25152 6.34978,13.48933 0.79535,11.11598 0.96637,11.01499 -30.75615,18.16276 -28.77231,6.48302 -34.66949,7.1289 -37.41282,4.09755 z m 103.41282,-21.67899 c -3.025,-0.79807 -8.2,-2.77471 -11.5,-4.39253 -29.09338,-14.26295 -42.50643,-59.72033 -26.72524,-90.57291 5.83203,-11.40176 19.22568,-22.48812 32.01928,-26.50343 18.58078,-5.83162 41.04651,0.38802 52.67926,14.58425 8.36592,10.2095 15.5267,26.20069 15.5267,34.67364 0,9.98535 -2.23362,11.12796 -40.28108,20.6057 -17.4796,4.35423 -32.05267,8.18836 -32.3846,8.52029 -1.15867,1.15866 1.94007,6.70139 5.4881,9.8166 8.20544,7.20446 18.84586,9.34422 29.17758,5.86753 7.31788,-2.46251 11.44069,-5.25358 18.05096,-12.22019 3.61534,-3.81023 5.21885,-4.79629 7.79966,-4.79629 6.44293,0 12.51625,5.10822 13.72335,11.5426 1.41945,7.56634 -8.84382,21.62069 -20.24945,27.72925 -11.5613,6.19194 -30.72925,8.46844 -43.32452,5.14549 z m 8.55427,-74.52748 c 11.10126,-2.81058 20.76479,-5.46901 21.4745,-5.90764 3.19787,-1.9764 -4.22682,-11.50366 -11.24665,-14.43154 -4.60351,-1.92006 -13.75014,-2.00871 -18.13697,-0.17578 -8.18144,3.41843 -15.64515,13.71908 -15.64515,21.59186 0,3.11532 0.3835,4.03324 1.68508,4.03324 0.9268,0 10.76793,-2.29956 21.86919,-5.11014 z M 96.71428,887.57701 c -6.20344,-2.04923 -9.68111,-4.1624 -13.70065,-8.32507 -5.96489,-6.17728 -8.07418,-12.16867 -8.59336,-24.4092 -0.57437,-13.54165 1.25891,-20.62341 6.76397,-26.12847 3.5638,-3.5638 4.16611,-3.79475 9.89662,-3.79475 5.32894,0 6.51555,0.36962 9.36764,2.91797 2.87343,2.56741 3.26578,3.52621 3.26578,7.98077 0,4.38649 -0.43719,5.49952 -3.27277,8.33203 -2.94862,2.94544 -3.81525,3.25636 -8.75,3.13927 -3.01248,-0.0715 -5.47723,0.0634 -5.47723,0.29966 0,1.3829 3.22883,6.20734 5.66072,8.45811 4.20332,3.89026 6.66143,4.87219 12.19681,4.87219 5.5639,0 9.96162,-2.8158 12.71576,-8.14173 1.73683,-3.35865 9.48658,-52.7764 8.55161,-54.53096 -0.3437,-0.64498 -10.12733,-10.39607 -21.74141,-21.66909 l -21.1165,-20.4964 -5.45644,0.049 c -3.00104,0.027 -6.46019,-0.48816 -7.687,-1.14473 -3.7135,-1.9874 -6.11568,-7.01185 -6.11981,-12.80034 -0.005,-7.47148 3.23206,-10.92395 12.007,-12.80468 3.56909,-0.76496 7.94989,-1.40665 9.73511,-1.42597 3.49482,-0.0378 3.30753,-0.19237 30.5861,25.23828 7.07146,6.59242 13.2058,11.573 13.66473,11.09464 0.85546,-0.8917 4.00882,-28.91862 4.00529,-35.59892 l -0.002,-3.73087 -4.4736,0.61318 c -5.59761,0.76723 -8.87755,-1.15538 -10.53412,-6.17483 -1.37004,-4.15127 0.0163,-8.87563 3.08661,-10.51883 3.18905,-1.70673 41.18621,-10.09499 41.95378,-9.26173 0.64383,0.69894 -2.46761,29.11171 -13.61237,124.30395 -4.78697,40.8876 -10.30553,54.39346 -25.20376,61.68248 -4.63502,2.26771 -7.17113,2.79 -14.66054,3.01921 -5.56384,0.17028 -10.59848,-0.23238 -13.056,-1.0442 z m 189.77445,-13.75068 c -10.39285,-5.14439 -12.14926,-19.26999 -3.38105,-27.19154 7.10787,-6.42153 16.99597,-5.90077 23.44234,1.23459 7.61418,8.42799 5.28924,21.59422 -4.6064,26.08632 -5.50276,2.49796 -10.22696,2.45841 -15.45489,-0.12937 z M -74.28572,849.97416 c -5.00185,-2.04722 -7.87624,-8.80078 -6.29879,-14.79944 1.01495,-3.8596 3.55102,-5.62728 10.3075,-7.18451 8.66238,-1.9965 8.70688,0.98326 -0.5607,-37.54696 -4.58774,-19.07366 -8.81535,-35.31356 -9.39468,-36.08865 -0.90489,-1.21065 -1.82841,-1.20136 -6.55333,0.066 -7.99627,2.14476 -10.52137,1.92289 -12.92742,-1.13591 -2.55182,-3.24411 -2.83999,-10.48336 -0.49478,-12.4297 2.47942,-2.05774 39.59078,-10.04042 41.04951,-8.82978 0.66971,0.55581 1.78761,3.23441 2.48422,5.95245 0.69661,2.71804 1.67494,4.94189 2.17407,4.94189 0.49912,0 2.9239,-1.77491 5.3884,-3.94424 9.46869,-8.33468 25.79868,-10.48503 35.67415,-4.69762 l 4.49781,2.6359 5.83439,-5.83439 c 7.6424,-7.6424 14.60795,-10.48525 25.81965,-10.53779 6.08135,-0.0285 9.12633,0.47283 12.69636,2.09036 6.15941,2.79075 12.82386,9.5626 16.08307,16.34225 2.24938,4.67906 6.79267,23.69871 12.72543,53.2727 l 1.16898,5.82718 7.28221,-0.6824 c 8.57565,-0.8036 11.07568,0.16308 13.12861,5.07642 3.51173,8.40475 0.24616,13.10086 -11.27862,16.21944 -8.84524,2.39346 -23.3902,5.23216 -26.80879,5.23216 -2.67855,0 -2.43409,0.88045 -11.42479,-41.14679 -3.2529,-15.20574 -6.64678,-29.06314 -7.54196,-30.79422 -5.10436,-9.87075 -18.03338,-8.95839 -22.70483,1.6022 -2.45262,5.54456 -2.73213,3.40928 5.69936,43.53917 3.54766,16.8852 6.18912,31.38098 5.8699,32.21285 -0.79145,2.0625 -9.59136,5.20156 -16.94198,6.04346 -9.43858,1.08104 -9.61948,0.7896 -13.9395,-22.45667 -6.7677,-36.41745 -10.12691,-49.9871 -13.15752,-53.15038 -3.42035,-3.57008 -7.93979,-4.46816 -12.62786,-2.50936 -4.42361,1.8483 -6.72807,6.02068 -6.72807,12.18161 0,2.54165 3.15,18.98849 7,36.54852 3.85,17.56004 7,32.99731 7,34.30505 0,2.18366 -0.84606,2.58972 -10.36659,4.97534 -8.66037,2.17008 -27.8789,5.79012 -29.63341,5.58181 -0.275,-0.0326 -1.4,-0.42773 -2.5,-0.87795 z"
         id="path3017"
         inkscape:connector-curvature="0"
         sodipodi:nodetypes="ccsssssssssssssssssssssssssssssssssssscscsscsssssssssscsssssssssssssssccssscssssssssssscsssssssssssssssssssssssssssssssssssssssssssssssssssssssscssssssssssssssccscssssscsssssssccssssszsssssssssssscssssscssssssssssssssssscz" />
      <path
         style="fill:#c92047"
         d="m 509.27497,1452.3611 72.38595,-67.3702 c 6.93857,-6.4578 45.87684,-35.2274 69.38697,-57.0651 l 20.33362,-17.4049 21.88067,2.895 c 24.16442,3.1972 43.59222,-2.3773 49.48781,-3.3986 1.57855,-0.2735 2.75,-0.022 2.75,0.5899 0,2.8613 -62.01438,54.8546 -88.9358,78.218 -23.32487,20.2423 -74.7429,63.7844 -76.62229,63.5359 -34.63145,0 -56.30323,0 -70.66693,0 z m -377.0169,0 c -0.0129,-0.654 0.40991,-1.74 3.40887,-5.92 2.99897,-4.1799 7.7799,-11.6322 10.6243,-16.5607 2.8444,-4.9285 5.58858,-8.9609 6.09819,-8.9609 1.27593,0 47.48838,30.2431 48.2291,31.4416 -24.60199,0 -43.35955,0 -68.36046,0 z M -54.37258,1303.2887 c -44.71455,-55.1111 -76.51419,-117.71 -93.40375,-183.8692 -6.06701,-23.7655 -11.36555,-54.5167 -9.38822,-54.4866 1.60806,0.024 17.62689,5.8335 18.38424,6.6668 0.40982,0.4509 2.88447,7.3448 5.49922,15.3198 11.11685,33.9065 28.02614,79.3695 49.46738,133 11.14547,27.878 35.09668,85.3901 37.19166,89.3054 0.53132,0.993 0.80647,2.2842 0.61145,2.8692 -0.19502,0.5851 -3.95791,-3.3774 -8.36198,-8.8054 z M 790.3969,998.69826 c -1.91348,-32.03634 -3.55496,-54.93744 -10.38972,-83.36247 -0.3891,-2.70395 -1.6475,-11.66627 -2.7964,-19.91627 -2.87518,-20.64727 -7.28415,-40.15643 -13.21731,-58.48522 -13.55614,-41.87622 -32.11946,-72.97428 -58.57081,-98.11943 -17.01296,-16.17285 -33.49828,-26.67688 -58.64549,-37.36743 -59.36107,-25.23548 -117.88332,-31.54251 -171.06289,-18.43568 -33.28226,8.20286 -69.71501,26.59202 -98.46767,49.70082 -22.15546,17.80657 -46.57809,44.24262 -62.77439,67.94956 l -8.2145,12.02378 -14.77172,-4.72384 c -18.16912,-5.81029 -40.7322,-11.46357 -42.71543,-10.70253 -0.81008,0.31085 -2.19948,3.17401 -3.08757,6.36258 -2.70789,9.72231 -8.67185,27.74685 -9.47173,28.62583 -0.41463,0.45565 -3.17108,-0.40867 -6.12543,-1.9207 -6.156,-3.15063 -18.12093,-4.33177 -25.84445,-2.5513 -2.46008,0.56712 -4.67158,0.83243 -4.91442,0.58958 -0.24285,-0.24285 1.27097,-5.92826 3.36405,-12.63424 8.82036,-28.2594 12.74431,-58.97174 10.68096,-83.59866 -2.52012,-30.07861 -10.85527,-51.46679 -26.45839,-67.89282 -10.73908,-11.30546 -24.1508,-18.69264 -44.80257,-24.67729 -31.38851,-9.09603 -63.1729,-3.70089 -89.39674,15.17439 -6.91036,4.9739 -19.81201,17.50935 -25.23319,24.51697 -3.10948,4.01942 -5.01956,5.6719 -6.14018,5.31208 -25.69276,-8.24961 -41.16313,-10.98727 -62.12663,-10.99402 -34.22795,-0.011 -58.84797,9.7301 -79.5646,31.48038 -19.78007,20.76699 -27.73167,45.18027 -24.49799,75.21454 4.83159,44.87547 30.14566,86.6778 72.07178,119.01555 6.31995,4.87459 11.61265,9.17761 11.76156,9.56226 0.14892,0.38465 -3.22608,1.52135 -7.5,2.52599 -11.3581,2.66989 -37.63557,11.77931 -50.36748,17.46054 -6.08215,2.71397 -15.33255,7.48508 -20.55646,10.60246 -5.22391,3.11739 -9.69712,5.46888 -9.94046,5.22553 -0.68775,-0.68775 6.23209,-19.9214 10.44903,-29.04305 2.08413,-4.50815 6.34426,-12.61976 9.46697,-18.02581 3.12271,-5.40605 5.67765,-10.50685 5.67765,-11.33511 0,-0.82826 -2.63767,-4.50513 -5.86148,-8.17082 -18.05304,-20.52749 -31.05645,-43.33885 -39.60055,-69.46965 -6.35515,-19.43622 -8.03812,-29.9471 -8.03716,-50.19524 0.001,-25.26381 3.88697,-39.6298 15.47833,-57.22466 15.3164,-23.24923 37.26622,-40.50888 61.7619,-48.56481 15.09836,-4.96542 26.77505,-6.71053 44.90079,-6.71053 22.46445,0 45.19204,3.77441 65.64824,10.90232 6.78589,2.36452 5.58101,3.11609 15.57222,-9.71341 18.05902,-23.1892 44.19181,-40.40883 72.06983,-47.48886 7.402,-1.87984 11.22136,-2.16882 28.06788,-2.12364 18.57042,0.0498 20.06119,0.20115 31.27212,3.17483 56.04598,14.86613 84.60213,45.32275 95.39971,101.74876 1.35231,7.0669 1.7336,14.76605 1.7752,35.8452 l 0.053,26.84521 16.30323,5.30561 c 11.97983,3.89863 16.55789,5.00042 17.26354,4.15479 0.52817,-0.63294 4.49378,-6.55108 8.81246,-13.15142 23.98654,-36.65915 56.01257,-69.83437 91.03265,-94.29921 68.49589,-47.85084 148.78961,-61.8017 231.58812,-40.23795 27.04538,7.04361 48.99195,15.11789 73,26.85715 25.26578,12.35427 42.70419,24.51702 61.86113,43.14623 51.14947,49.74049 80.05297,119.1147 88.75667,213.03439 1.6186,17.46624 1.6534,68.25525 0.06,87.5 -20.1025,0.74786 -37.23027,1.72396 -52.99521,1.27874 z m -651.80071,-51.13597 -11.11809,-11.15636 9.49561,-9.9697 c 5.22258,-5.48333 13.55087,-15.04277 18.5073,-21.2432 4.95644,-6.20043 9.13148,-11.27351 9.27787,-11.27351 0.1464,0 2.14243,1.56757 4.43564,3.48349 4.22273,3.52799 12.0898,6.51651 17.15426,6.51651 2.3508,0 2.92957,0.56922 3.81292,3.75 0.57278,2.0625 1.04394,4.29744 1.047,4.96654 0.0139,3.02796 -38.50421,46.55929 -40.86441,46.18302 -0.34651,-0.0552 -5.63315,-5.12079 -11.7481,-11.25679 z"
         id="path3015"
         inkscape:connector-curvature="0"
         sodipodi:nodetypes="csscscssccccssccsscsssscsccscssssscssscsscssssssssssscssscsssssssssssssssscssssssssccscssssssccs" />
    </g>
    <text
       xml:space="preserve"
       style="font-size:487.24279785px;font-style:normal;font-variant:normal;font-weight:bold;font-stretch:normal;line-height:125%;letter-spacing:0px;word-spacing:0px;fill:#e21b78;fill-opacity:1;stroke:none;font-family:Celestia Redux;-inkscape-font-specification:Celestia Redux Bold"
       x="241.60271"
       y="1075.8116"
       id="text2996"
       sodipodi:linespacing="125%"
       transform="matrix(0.97616292,-0.23042746,0.23197255,0.96966104,0,0)"><tspan
         sodipodi:role="line"
         id="tspan2998"
         x="241.60271"
         y="1075.8116">inux</tspan></text>
    <text
       transform="matrix(0.96752706,-0.26435253,0.26566978,0.96097522,0,0)"
       sodipodi:linespacing="125%"
       id="text2985"
       y="1045.2487"
       x="-125.23358"
       style="font-size:714.43969727px;font-style:normal;font-variant:normal;font-weight:bold;font-stretch:normal;line-height:125%;letter-spacing:0px;word-spacing:0px;fill:#e21b78;fill-opacity:1;stroke:none;font-family:Celestia Redux;-inkscape-font-specification:Celestia Redux Bold"
       xml:space="preserve"><tspan
         y="1045.2487"
         x="-125.23358"
         id="tspan2987"
         sodipodi:role="line">L</tspan></text>
    <text
       xml:space="preserve"
       style="font-size:242.48568726px;font-style:normal;font-variant:normal;font-weight:bold;font-stretch:normal;line-height:125%;letter-spacing:0px;word-spacing:0px;fill:#e21b78;fill-opacity:1;stroke:none;font-family:Celestia Redux;-inkscape-font-specification:Celestia Redux Bold"
       x="1081.8774"
       y="938.21021"
       id="text3791"
       sodipodi:linespacing="125%"
       transform="matrix(0.96752706,-0.26435253,0.26566978,0.96097522,0,0)"><tspan
         sodipodi:role="line"
         id="tspan3793"
         x="1081.8774"
         y="938.21021">OS</tspan></text>
  </g>
</svg>
