<?xml version="1.0" encoding="UTF-8" standalone="no"?>
<!-- Created with Inkscape (http://www.inkscape.org/) -->

<svg
   xmlns:dc="http://purl.org/dc/elements/1.1/"
   xmlns:cc="http://creativecommons.org/ns#"
   xmlns:rdf="http://www.w3.org/1999/02/22-rdf-syntax-ns#"
   xmlns:svg="http://www.w3.org/2000/svg"
   xmlns="http://www.w3.org/2000/svg"
   xmlns:sodipodi="http://sodipodi.sourceforge.net/DTD/sodipodi-0.dtd"
   xmlns:inkscape="http://www.inkscape.org/namespaces/inkscape"
   width="228"
   height="80"
   id="svg2"
   version="1.1"
   inkscape:version="0.92.2 5c3e80d, 2017-08-06"
   sodipodi:docname="logo.svg">
  <defs
     id="defs4">
    <filter
       y="-0.25"
       height="1.5"
       inkscape:menu-tooltip="Darkens the edge with an inner blur and adds a flexible glow"
       inkscape:menu="Shadows and Glows"
       inkscape:label="Dark and Glow"
       style="color-interpolation-filters:sRGB;"
       id="filter903"
       x="-0.10000000000000001"
       width="1.21">
      <feGaussianBlur
         stdDeviation="5"
         result="result6"
         id="feGaussianBlur893" />
      <feComposite
         result="result8"
         in="SourceGraphic"
         operator="destination-atop"
         in2="result6"
         id="feComposite895" />
      <feComposite
         result="result9"
         operator="over"
         in2="SourceAlpha"
         in="result8"
         id="feComposite897" />
      <feColorMatrix
         values="1 0 0 0 0 0 1 0 0 0 0 0 1 0 0 0 0 0 1 0 "
         result="result10"
         id="feColorMatrix899" />
      <feBlend
         in="result10"
         mode="normal"
         in2="result6"
         id="feBlend901" />
    </filter>
    <filter
       style="color-interpolation-filters:sRGB;"
       inkscape:label="Drop Shadow"
       id="filter935">
      <feFlood
         flood-opacity="1"
         flood-color="rgb(255,255,255)"
         result="flood"
         id="feFlood925" />
      <feComposite
         in="flood"
         in2="SourceGraphic"
         operator="in"
         result="composite1"
         id="feComposite927" />
      <feGaussianBlur
         in="composite1"
         stdDeviation="7.3"
         result="blur"
         id="feGaussianBlur929" />
      <feOffset
         dx="0"
         dy="0"
         result="offset"
         id="feOffset931" />
      <feComposite
         in="SourceGraphic"
         in2="offset"
         operator="over"
         result="composite2"
         id="feComposite933" />
    </filter>
  </defs>
  <sodipodi:namedview
     id="base"
     pagecolor="#ffffff"
     bordercolor="#666666"
     borderopacity="1.0"
     inkscape:pageopacity="0.0"
     inkscape:pageshadow="2"
     inkscape:zoom="2.8"
     inkscape:cx="54.175928"
     inkscape:cy="4.0121242"
     inkscape:document-units="px"
     inkscape:current-layer="layer1"
     showgrid="false"
     inkscape:window-width="1406"
     inkscape:window-height="900"
     inkscape:window-x="236"
     inkscape:window-y="33"
     inkscape:window-maximized="0"
     showguides="true"
     inkscape:guide-bbox="true" />
  <metadata
     id="metadata7">
    <rdf:RDF>
      <cc:Work
         rdf:about="">
        <dc:format>image/svg+xml</dc:format>
        <dc:type
           rdf:resource="http://purl.org/dc/dcmitype/StillImage" />
        <dc:title />
      </cc:Work>
    </rdf:RDF>
  </metadata>
  <g
     inkscape:label="Vrstva 1"
     inkscape:groupmode="layer"
     id="layer1"
     transform="translate(0,-972.36218)">
    <g
       id="g891"
       style="filter:url(#filter935)">
      <path
         style="fill:#e771a2;stroke-width:0.09092328;"
         d="m 9.91209,992.51378 c 8.54912,31.20412 4.27456,15.60202 0,0 z m 32.31535,21.00662 c -0.20233,-0.1718 -0.46922,-1.0763 -0.46922,-1.5902 0,-0.4253 0.18613,-0.5661 1.03485,-0.7829 0.39414,-0.1007 0.75173,-0.2181 0.79464,-0.2611 0.0631,-0.063 -0.67015,-3.8531 -1.87839,-9.7086 -0.20293,-0.9835 -0.24341,-1.0176 -0.98593,-0.8311 -0.8928,0.2243 -1.17923,0.2001 -1.45072,-0.1226 -0.29596,-0.35172 -0.48315,-1.16592 -0.37102,-1.61382 0.11768,-0.47 0.4108,-0.6073 1.96889,-0.9222 1.07732,-0.2177 1.40215,-0.2525 1.66934,-0.1787 0.38794,0.1071 0.7177,0.4319 0.84876,0.8358 0.0682,0.2103 1.89476,8.56672 2.52162,11.53642 0.0867,0.4106 0.21052,0.4499 0.9166,0.2904 0.57926,-0.1308 0.66493,-0.1311 0.91285,0 0.71983,0.3723 0.90022,1.9848 0.25944,2.3193 -0.24682,0.1288 -5.00737,1.1913 -5.33781,1.1913 -0.13558,0 -0.33083,-0.072 -0.4339,-0.1591 z m 8.11988,-1.564 c -0.10176,-0.041 -0.23155,-0.1311 -0.28843,-0.1996 -0.11637,-0.1402 -0.39034,-1.247 -0.39034,-1.5769 0,-0.3156 0.34026,-0.5317 1.13028,-0.718 0.38555,-0.091 0.72201,-0.22 0.74769,-0.2869 0.0421,-0.1097 -0.84088,-4.677 -1.06892,-5.5292 -0.0841,-0.3143 -0.11886,-0.3459 -0.33775,-0.3069 -0.1342,0.024 -0.53782,0.097 -0.89695,0.1633 -0.51135,0.094 -0.70463,0.096 -0.89122,0.011 -0.32228,-0.1468 -0.51465,-0.6494 -0.51873,-1.3551 -0.004,-0.6801 0.18784,-0.9671 0.74673,-1.1176 0.92887,-0.2501 2.58926,-0.5371 2.80309,-0.4845 0.36658,0.09 0.64382,0.3007 0.80402,0.6105 0.0797,0.1542 0.49962,1.8658 0.93312,3.8035 0.4335,1.9378 0.81673,3.5518 0.85162,3.5867 0.0349,0.035 0.39373,0.01 0.79741,-0.056 0.68892,-0.1118 0.74882,-0.1083 0.97636,0.058 0.33991,0.2482 0.58068,0.782 0.58856,1.3047 0.008,0.5115 -0.14092,0.8458 -0.43569,0.9801 -0.20357,0.093 -5.12638,1.2046 -5.28419,1.1934 -0.0449,0 -0.16491,-0.04 -0.26666,-0.081 z m 8.95851,-1.902 c -0.73652,-0.2429 -1.28897,-0.7336 -1.59917,-1.4206 -0.16806,-0.3721 -0.90706,-3.5298 -1.40132,-5.9877 l -0.10694,-0.5318 -0.33265,0.053 c -0.96416,0.1532 -1.43064,0.1666 -1.53186,0.044 -0.12574,-0.1521 -0.39195,-1.154 -0.39195,-1.4752 0,-0.3462 0.30607,-0.5704 1.01645,-0.74452 0.34912,-0.086 0.65412,-0.206 0.67776,-0.2676 0.0237,-0.062 -0.12284,-0.8455 -0.32553,-1.7419 -0.44967,-1.9887 -0.46516,-2.3646 -0.11296,-2.7416 0.36858,-0.3946 0.92819,-0.5445 1.40414,-0.3763 0.20328,0.072 0.44472,0.2329 0.53654,0.3579 0.10102,0.1375 0.32105,0.9539 0.55722,2.0674 0.21466,1.0121 0.42965,1.8791 0.47776,1.9268 0.0555,0.055 0.47927,0 1.16085,-0.1544 0.78086,-0.1754 1.11536,-0.2156 1.22746,-0.1475 0.42393,0.2574 0.67881,1.50412 0.37059,1.81272 -0.081,0.081 -0.61285,0.2707 -1.182,0.4215 -0.56914,0.1507 -1.06591,0.3032 -1.10392,0.3388 -0.10171,0.095 0.9139,4.8961 1.13371,5.359 0.34987,0.7369 1.11147,0.9486 1.85178,0.5148 0.37792,-0.2215 0.76602,-0.7127 0.76602,-0.9695 0,-0.097 -0.13493,-0.128 -0.55281,-0.1256 -0.51123,0 -0.57278,-0.019 -0.81831,-0.2938 -0.37124,-0.4152 -0.3738,-0.9883 -0.006,-1.3996 0.22467,-0.2515 0.33081,-0.2952 0.79558,-0.3277 0.45038,-0.032 0.58646,0 0.84917,0.175 0.84567,0.5748 1.18051,2.6227 0.63583,3.8889 -0.26215,0.6094 -1.00971,1.2938 -1.69909,1.5556 -0.56357,0.214 -1.8903,0.3237 -2.2961,0.1899 z m 8.04729,-1.6405 c -0.52595,-0.1463 -0.7665,-0.2754 -1.13837,-0.6114 -0.65769,-0.5942 -0.71624,-0.7759 -1.63893,-5.0876 -0.25585,-1.1956 -0.49255,-2.2006 -0.52602,-2.2333 -0.0335,-0.033 -0.40108,0.01 -0.81692,0.087 -0.5468,0.1057 -0.7984,0.1195 -0.90894,0.05 -0.19199,-0.1211 -0.45878,-0.95502 -0.46612,-1.45702 -0.007,-0.4828 0.22941,-0.6852 0.98877,-0.8464 0.30216,-0.064 0.5923,-0.1683 0.64475,-0.2315 0.0683,-0.082 -0.023,-0.6375 -0.32091,-1.9529 -0.46274,-2.043 -0.46001,-2.1967 0.0477,-2.6831 0.22072,-0.2115 0.37079,-0.2665 0.81449,-0.2986 0.51949,-0.038 0.55754,-0.026 0.84711,0.267 0.27984,0.2827 0.32869,0.4253 0.63424,1.852 0.18207,0.8501 0.35844,1.7024 0.39192,1.8939 0.0335,0.1915 0.12052,0.3711 0.19342,0.3991 0.0729,0.028 0.53284,-0.04 1.02212,-0.1509 0.48928,-0.1109 1.00347,-0.1882 1.14265,-0.1718 0.33775,0.04 0.57728,0.3848 0.66862,0.9626 0.12958,0.8197 -0.03,0.9683 -1.40225,1.3057 -0.44758,0.11 -0.86618,0.2474 -0.93021,0.3053 -0.0939,0.085 -0.0275,0.53582 0.34214,2.32682 0.2522,1.2219 0.51928,2.432 0.5935,2.6893 0.15721,0.5448 0.60166,0.9923 1.07353,1.0809 0.53354,0.1001 1.27613,-0.3182 1.57098,-0.8849 0.20818,-0.4001 0.16926,-0.4663 -0.2362,-0.4015 -0.74606,0.1193 -1.27268,-0.3294 -1.27268,-1.0843 0,-0.5335 0.32634,-0.8979 0.88932,-0.993 1.13725,-0.1922 1.8595,0.8039 1.87648,2.5879 0.009,0.9265 -0.13,1.4521 -0.52833,2.0003 -0.36774,0.5062 -0.86155,0.8549 -1.55627,1.0991 -0.59257,0.2082 -1.58107,0.2981 -1.99959,0.1818 z m 5.55425,-1.4539 c -0.17093,-0.1889 -0.40868,-1.0651 -0.41384,-1.5252 -0.004,-0.4003 0.3098,-0.6219 1.14635,-0.808 0.37553,-0.083 0.70056,-0.1982 0.7223,-0.2549 0.0331,-0.086 -0.43297,-2.4506 -1.87523,-9.51352 -0.10722,-0.5251 -0.24655,-1.0085 -0.30962,-1.0743 -0.0947,-0.099 -0.21027,-0.095 -0.66409,0.023 -1.1752,0.3045 -1.53786,0.1653 -1.7911,-0.6874 -0.26005,-0.8757 -0.1153,-1.4288 0.42411,-1.6206 0.4781,-0.1699 2.42672,-0.5501 2.81986,-0.5501 0.43465,0 0.8093,0.2059 1.0182,0.5595 0.0851,0.1441 0.55823,2.1332 1.0513,4.4202 1.58705,7.36112 1.66324,7.70292 1.73533,7.78412 0.0406,0.046 0.38184,0.03 0.79747,-0.038 0.65255,-0.106 0.75022,-0.1024 0.95976,0.035 0.37985,0.2489 0.53026,0.5684 0.57735,1.2265 0.0723,1.0107 0.0879,1.0015 -2.79645,1.6514 -2.61608,0.5895 -3.15227,0.6482 -3.4017,0.3726 z m 9.40263,-1.9712 c -0.27504,-0.072 -0.74557,-0.2523 -1.04561,-0.3994 -2.64527,-1.2968 -3.86483,-5.42992 -2.42995,-8.23512 0.53027,-1.0367 1.74806,-2.0447 2.9113,-2.4098 1.68942,-0.5302 3.73208,0.035 4.78977,1.326 0.76066,0.9283 1.41174,2.3823 1.41174,3.1527 0,0.9079 -0.20309,1.0118 -3.66249,1.87352 -1.5893,0.3959 -2.91433,0.7445 -2.94451,0.7747 -0.10535,0.1054 0.17639,0.6093 0.49899,0.8926 0.74607,0.655 1.71353,0.8496 2.65292,0.5335 0.66537,-0.2239 1.04023,-0.4777 1.64125,-1.1111 0.32872,-0.3465 0.47452,-0.4361 0.70918,-0.4361 0.58581,0 1.13801,0.4644 1.24777,1.0495 0.12906,0.6879 -0.80411,1.9658 -1.84115,2.5212 -1.05119,0.563 -2.794,0.77 -3.93921,0.4678 z m 0.77779,-6.77632 c 1.00936,-0.2555 1.888,-0.4972 1.95253,-0.5371 0.29076,-0.1797 -0.38432,-1.0459 -1.02258,-1.3122 -0.41857,-0.1745 -1.25021,-0.1826 -1.64908,-0.016 -0.74388,0.3108 -1.42251,1.2473 -1.42251,1.9632 0,0.2832 0.0349,0.3667 0.15322,0.3667 0.0843,0 0.97905,-0.2091 1.98842,-0.4647 z M 31.52935,1001.01 c -0.56403,-0.1863 -0.88023,-0.3784 -1.2457,-0.7569 -0.54235,-0.56172 -0.73413,-1.10642 -0.78134,-2.21942 -0.0522,-1.2312 0.11446,-1.8751 0.615,-2.3756 0.32403,-0.3241 0.3788,-0.3451 0.89984,-0.3451 0.48452,0 0.59241,0.034 0.85173,0.2653 0.26126,0.2335 0.29694,0.3206 0.29694,0.7257 0,0.3988 -0.0397,0.5 -0.29757,0.7575 -0.2681,0.2679 -0.3469,0.2961 -0.79558,0.2855 -0.27391,-0.01 -0.49801,0.01 -0.49801,0.027 0,0.1258 0.29358,0.5644 0.51469,0.7691 0.38218,0.3537 0.60568,0.443 1.10897,0.443 0.50589,0 0.90575,-0.2561 1.15616,-0.7403 0.15792,-0.3054 0.86255,-4.7986 0.77754,-4.9581 -0.0312,-0.059 -0.92081,-0.9453 -1.9768,-1.9703 l -1.91998,-1.8636 h -0.49612 c -0.27286,0 -0.58738,-0.044 -0.69892,-0.1041 -0.33765,-0.1807 -0.55606,-0.6375 -0.55644,-1.1639 -4.5e-4,-0.6793 0.29387,-0.9932 1.09172,-1.1642 0.32451,-0.069 0.72283,-0.1279 0.88515,-0.1296 0.31776,0 0.30073,-0.017 2.78099,2.2947 0.64296,0.5994 1.20071,1.0523 1.24244,1.0088 0.0778,-0.081 0.36449,-2.6294 0.36417,-3.2368 l -1.8e-4,-0.3392 -0.40675,0.056 c -0.50896,0.07 -0.80718,-0.105 -0.9578,-0.5614 -0.12457,-0.3775 10e-4,-0.807 0.28064,-0.9564 0.28996,-0.1552 3.74479,-0.9179 3.81458,-0.8421 0.0585,0.063 -0.22436,2.6469 -1.23768,11.3021 -0.43525,3.7176 -0.93701,4.94562 -2.29161,5.60842 -0.42143,0.2062 -0.65202,0.2536 -1.33298,0.2745 -0.50589,0.015 -0.96365,-0.021 -1.1871,-0.095 z m 17.25492,-1.25022 c -0.94495,-0.4678 -1.10465,-1.7521 -0.30742,-2.4724 0.64627,-0.5838 1.54533,-0.5365 2.13146,0.1123 0.6923,0.7663 0.48091,1.9634 -0.41883,2.3718 -0.50033,0.2272 -0.92987,0.2236 -1.40521,-0.012 z m -32.8028,-2.1687 c -0.45478,-0.1862 -0.71613,-0.8002 -0.5727,-1.3456 0.0923,-0.351 0.32287,-0.5117 0.93719,-0.6533 0.78761,-0.1815 0.79166,0.089 -0.051,-3.4139 -0.41713,-1.7342 -0.80152,-3.2108 -0.8542,-3.2813 -0.0823,-0.1101 -0.16624,-0.1092 -0.59585,0.01 -0.72704,0.195 -0.95663,0.1749 -1.1754,-0.1033 -0.23202,-0.2949 -0.25822,-0.9531 -0.045,-1.1301 0.22544,-0.1871 3.59973,-0.9129 3.73236,-0.8028 0.0609,0.051 0.16253,0.294 0.22587,0.5412 0.0633,0.2471 0.15229,0.4493 0.19768,0.4493 0.0454,0 0.26585,-0.1614 0.48993,-0.3586 0.86092,-0.7578 2.3457,-0.9533 3.24361,-0.4271 l 0.40895,0.2396 0.53048,-0.5305 c 0.69488,-0.6948 1.32821,-0.9533 2.34761,-0.9581 0.55294,0 0.8298,0.043 1.1544,0.1901 0.56003,0.2537 1.16598,0.8694 1.46232,1.4859 0.20452,0.4254 0.61761,2.1547 1.15704,4.8437 l 0.10629,0.5298 0.66212,-0.062 c 0.77973,-0.073 1.00704,0.015 1.1937,0.4615 0.31929,0.7642 0.0224,1.1912 -1.02549,1.4748 -0.80424,0.2176 -2.12672,0.4757 -2.43755,0.4757 -0.24354,0 -0.22131,0.08 -1.03878,-3.7412 -0.29576,-1.3826 -0.60434,-2.6425 -0.68574,-2.7999 -0.4641,-0.8975 -1.63965,-0.8145 -2.06439,0.1457 -0.223,0.5041 -0.24842,0.3099 0.5182,3.9587 0.32257,1.5352 0.56274,2.8532 0.53371,2.9289 -0.072,0.1875 -0.87208,0.4729 -1.54042,0.5495 -0.85818,0.098 -0.87463,0.072 -1.26742,-2.0419 -0.61534,-3.3112 -0.92078,-4.545 -1.19633,-4.8326 -0.31099,-0.3246 -0.72191,-0.4062 -1.14816,-0.2281 -0.40221,0.168 -0.61174,0.5474 -0.61174,1.1076 0,0.2311 0.28641,1.7265 0.63646,3.3231 0.35005,1.5966 0.63646,3.0002 0.63646,3.1191 0,0.1985 -0.0769,0.2355 -0.94256,0.4524 -0.78743,0.1973 -2.53484,0.5264 -2.69437,0.5075 -0.025,0 -0.12729,-0.039 -0.22731,-0.08 z"
         id="path3017"
         inkscape:connector-curvature="0"
         sodipodi:nodetypes="ccsssssssssssssssssssssssssssssssssssscscsscsssssssssscsssssssssssssssccssscssssssssssscsssssssssssssssssssssssssssssssssssssssssssssssssssssssscssssssssssssssccscssssscsssssssccssssszsssssssssssscssssscssssssssssssssssscz" />
      <path
         style="fill:#c92047;stroke-width:0.09092328;"
         d="m 69.04072,1052.3621 6.58157,-6.1256 c 0.63088,-0.5871 4.17127,-3.2029 6.30889,-5.1885 l 1.8488,-1.5825 1.98946,0.2632 c 2.19711,0.2907 3.96355,-0.2161 4.4996,-0.309 0.14352,-0.025 0.25003,0 0.25003,0.054 0,0.2602 -5.63854,4.9876 -8.08633,7.1119 -2.12077,1.8405 -6.79587,5.7995 -6.96675,5.7769 -3.1488,0 -5.11927,0 -6.42527,0 z m -34.27961,0 c -0.001,-0.06 0.0373,-0.1582 0.30995,-0.5383 0.27267,-0.3801 0.70737,-1.0576 0.96599,-1.5058 0.25863,-0.4481 0.50814,-0.8147 0.55447,-0.8147 0.11601,0 4.3178,2.7498 4.38515,2.8588 -2.23689,0 -3.94239,0 -6.21556,0 z m -16.96907,-13.5542 c -4.06559,-5.0109 -6.95692,-10.7026 -8.49257,-16.718 -0.55164,-2.1608 -1.0334,-4.9568 -0.85361,-4.9541 0.14621,0 1.60269,0.5304 1.67155,0.6062 0.0373,0.041 0.26227,0.6678 0.50001,1.3929 1.01078,3.0829 2.54823,7.2166 4.49774,12.0928 1.01338,2.5348 3.1911,7.764 3.38159,8.12 0.0483,0.09 0.0733,0.2076 0.0556,0.2608 -0.0177,0.053 -0.35987,-0.3071 -0.7603,-0.8006 z m 76.80921,-27.6943 c -0.17398,-2.9129 -0.32323,-4.9951 -0.94467,-7.5796 -0.0354,-0.2459 -0.1498,-1.0608 -0.25426,-1.8109 -0.26142,-1.87732 -0.6623,-3.65112 -1.20176,-5.31772 -1.23257,-3.8075 -2.9204,-6.635 -5.32545,-8.9213 -1.54687,-1.4705 -3.04577,-2.4255 -5.33224,-3.3976 -5.3973,-2.2945 -10.71833,-2.8679 -15.55359,-1.6762 -3.02614,0.7458 -6.33872,2.4178 -8.95301,4.519 -2.01444,1.619 -4.23503,4.0226 -5.70765,6.1782 l -0.74689,1.0932 -1.34309,-0.4295 c -1.652,-0.5283 -3.70351,-1.0423 -3.88383,-0.9731 -0.0737,0.028 -0.19998,0.2886 -0.28073,0.5785 -0.24621,0.884 -0.78847,2.5228 -0.8612,2.6027 -0.0377,0.042 -0.28833,-0.037 -0.55695,-0.1746 -0.55972,-0.2865 -1.64761,-0.3939 -2.34986,-0.232 -0.22368,0.052 -0.42475,0.076 -0.44683,0.054 -0.0221,-0.022 0.11556,-0.539 0.30587,-1.1487 0.80197,-2.5694 1.15875,-5.3619 0.97114,-7.6011 -0.22913,-2.7348 -0.98699,-4.6795 -2.40568,-6.173 -0.97643,-1.0279 -2.19587,-1.6996 -4.0736,-2.2437 -2.85394,-0.8271 -5.74388,-0.3365 -8.12824,1.3797 -0.62831,0.4522 -1.80137,1.592 -2.29428,2.2291 -0.28273,0.3655 -0.4564,0.5157 -0.55829,0.483 -2.33607,-0.7501 -3.74269,-0.999 -5.64876,-0.9996 -3.11211,-10e-4 -5.35065,0.8847 -7.23427,2.8623 -1.79847,1.8882 -2.52145,4.1079 -2.22744,6.8388 0.43931,4.0802 2.74094,7.881 6.553,10.82122 0.57464,0.4433 1.05586,0.8345 1.0694,0.8695 0.0135,0.035 -0.29332,0.1383 -0.68192,0.2296 -1.03272,0.2428 -3.42195,1.0711 -4.57958,1.5876 -0.55301,0.2468 -1.39408,0.6806 -1.86906,0.964 -0.47497,0.2835 -0.88169,0.4973 -0.90382,0.4751 -0.0625,-0.062 0.56665,-1.8113 0.95006,-2.6406 0.1895,-0.4099 0.57684,-1.1475 0.86077,-1.639 0.28393,-0.4915 0.51623,-0.9553 0.51623,-1.0306 0,-0.075 -0.23982,-0.4097 -0.53294,-0.743 -1.64144,-1.86642 -2.82376,-3.94052 -3.60061,-6.31642 -0.57784,-1.7672 -0.73086,-2.7229 -0.73077,-4.5639 9e-5,-2.297 0.35342,-3.6033 1.40734,-5.203 1.39262,-2.1139 3.38837,-3.6832 5.6156,-4.4157 1.37279,-0.4515 2.43447,-0.6101 4.08252,-0.6101 2.04254,0 4.10901,0.3431 5.96895,0.9912 0.617,0.215 0.50745,0.2834 1.41588,-0.8831 1.64199,-2.1085 4.01807,-3.6742 6.55283,-4.3179 0.67301,-0.1709 1.02028,-0.1972 2.55202,-0.1931 1.68848,0 1.82403,0.018 2.84336,0.2887 5.09589,1.3517 7.69231,4.1209 8.67406,9.2513 0.12296,0.6426 0.15762,1.3426 0.16141,3.2592 l 0.005,2.4408 1.48235,0.4824 c 1.08924,0.3545 1.5055,0.4547 1.56966,0.3778 0.048,-0.058 0.40858,-0.5956 0.80125,-1.1958 2.18094,-3.3331 5.09285,-6.3495 8.27699,-8.574 6.22787,-4.3507 13.52844,-5.6192 21.05675,-3.6585 2.45905,0.6404 4.45451,1.3745 6.6374,2.4419 2.29725,1.1233 3.8828,2.2292 5.62461,3.923 4.65068,4.5226 7.27868,10.8303 8.07005,19.36982 0.14717,1.5881 0.15033,6.206 0.005,7.9558 -1.82779,0.068 -3.3851,0.1567 -4.8185,0.1163 z m -59.26386,-4.6495 -1.01089,-1.0144 0.86337,-0.9064 c 0.47486,-0.4986 1.23209,-1.3678 1.68275,-1.9316 0.45065,-0.5637 0.83026,-1.025 0.84357,-1.025 0.0133,0 0.1948,0.1426 0.40331,0.3168 0.38394,0.3207 1.09924,0.5925 1.55972,0.5925 0.21374,0 0.26636,0.052 0.34668,0.3409 0.0521,0.1875 0.0949,0.3908 0.0952,0.4516 0.001,0.2753 -3.50093,4.2333 -3.71553,4.1991 -0.0315,0 -0.51218,-0.4656 -1.06818,-1.0235 z"
         id="path3015"
         inkscape:connector-curvature="0"
         sodipodi:nodetypes="csscscssccccssccsscsssscsccscssssscssscsscssssssssssscssscsssssssssssssssscssssssssccscssssssccs" />
      <text
         transform="matrix(0.97616292,-0.23042746,0.23197255,0.96966104,0,0)"
         id="text2996"
         y="1032.2402"
         x="-197.63972"
         style="font-style:normal;font-variant:normal;font-weight:bold;font-stretch:normal;font-size:1.09107935px;line-height:0%;font-family:'Celestia Redux';-inkscape-font-specification:'Celestia Redux Bold';letter-spacing:0px;word-spacing:0px;fill:#e21b78;fill-opacity:1;stroke:none;stroke-width:0.09092327;"
         xml:space="preserve"><tspan
           style="font-size:44.30171204px;line-height:1.25;stroke-width:0.09092327;"
           y="1032.2402"
           x="-197.63972"
           id="tspan2998"
           sodipodi:role="line">inux</tspan></text>
      <text
         xml:space="preserve"
         style="font-style:normal;font-variant:normal;font-weight:bold;font-stretch:normal;font-size:1.09107935px;line-height:0%;font-family:'Celestia Redux';-inkscape-font-specification:'Celestia Redux Bold';letter-spacing:0px;word-spacing:0px;fill:#e21b78;fill-opacity:1;stroke:none;stroke-width:0.09092328;"
         x="-263.25183"
         y="1021.2806"
         id="text2985"
         transform="matrix(0.96752706,-0.26435253,0.26566978,0.96097522,0,0)"><tspan
           style="font-size:64.959198px;line-height:1.25;stroke-width:0.09092328;"
           sodipodi:role="line"
           id="tspan2987"
           x="-263.25183"
           y="1021.2806">L</tspan></text>
      <text
         transform="matrix(0.96752706,-0.26435253,0.26566978,0.96097522,0,0)"
         id="text3791"
         y="1011.5483"
         x="-153.49734"
         style="font-style:normal;font-variant:normal;font-weight:bold;font-stretch:normal;font-size:1.09107935px;line-height:0%;font-family:'Celestia Redux';-inkscape-font-specification:'Celestia Redux Bold';letter-spacing:0px;word-spacing:0px;fill:#e21b78;fill-opacity:1;stroke:none;stroke-width:0.09092328;"
         xml:space="preserve"><tspan
           style="font-size:22.04759216px;line-height:1.25;stroke-width:0.09092328;"
           y="1011.5483"
           x="-153.49734"
           id="tspan3793"
           sodipodi:role="line">OS</tspan></text>
    </g>
  </g>
</svg>
