<?xml version="1.0" encoding="UTF-8" standalone="no"?>
<svg
   xmlns:dc="http://purl.org/dc/elements/1.1/"
   xmlns:cc="http://creativecommons.org/ns#"
   xmlns:rdf="http://www.w3.org/1999/02/22-rdf-syntax-ns#"
   xmlns:svg="http://www.w3.org/2000/svg"
   xmlns="http://www.w3.org/2000/svg"
   xmlns:xlink="http://www.w3.org/1999/xlink"
   xmlns:sodipodi="http://sodipodi.sourceforge.net/DTD/sodipodi-0.dtd"
   xmlns:inkscape="http://www.inkscape.org/namespaces/inkscape"
   version="1.0"
   width="124"
   height="140"
   viewBox="0 0 99.2 112"
   preserveAspectRatio="xMidYMid meet"
   id="svg2"
   inkscape:version="0.48.5 r10040"
   sodipodi:docname="penguin_white.svg">
  <defs
     id="defs136" />
  <sodipodi:namedview
     pagecolor="#ffffff"
     bordercolor="#666666"
     borderopacity="1"
     objecttolerance="10"
     gridtolerance="10"
     guidetolerance="10"
     inkscape:pageopacity="0"
     inkscape:pageshadow="2"
     inkscape:window-width="1012"
     inkscape:window-height="800"
     id="namedview134"
     showgrid="false"
     inkscape:zoom="0.97742385"
     inkscape:cx="43.931895"
     inkscape:cy="29.851432"
     inkscape:window-x="60"
     inkscape:window-y="38"
     inkscape:window-maximized="0"
     inkscape:current-layer="g3021"
     showguides="true"
     inkscape:guide-bbox="true" />
  <metadata
     id="metadata4">
Created by potrace 1.10, written by Peter Selinger 2001-2011
<rdf:RDF>
  <cc:Work
     rdf:about="">
    <dc:format>image/svg+xml</dc:format>
    <dc:type
       rdf:resource="http://purl.org/dc/dcmitype/StillImage" />
    <dc:title />
  </cc:Work>
</rdf:RDF>
</metadata>
  <g
     transform="matrix(0.1,0,0,-0.1,0,112)"
     id="g6">
    <g
       id="g3021"
       transform="matrix(1.3111669,0,0,1.3098732,-13.111669,-71.46086)">
      <path
         sodipodi:nodetypes="cccccccccscscccccccccccscc"
         inkscape:connector-curvature="0"
         style="fill:#ffffff;fill-opacity:1"
         id="path8"
         d="m 410.52,873.85111 c -35.34,-13.02 -53.32,-27.9 -79.36,-66.34 -20.46,-29.14 -26.66,-48.36 -50.84,-152.52 -17.98,-75.64 -37.2,-140.74 -53.32,-179.8 C 186.43284,394.76297 168.17016,335.69027 162.2875,251.21611 136.03601,165.9773 70.45,119.93111 42.24,108.77111 27.98,101.95111 10,93.891111 10,93.891111 c 0,0 32.86,-4.03 65.1,1.24 27.28,4.34 43.4,6.199999 66.96,6.819999 31.62,0 41.54,0.93 41.54,9.3 0,11.78 -37.82,11.16 -79.98,-1.24 C 64.56,99.161111 13.528178,94.475635 13.3325,94.588611 12.847633,94.868547 60.22,102.26111 90.6,117.45111 c 17.98,6.2 45.88,22.94 61.38,37.2 l 27.9,25.42 13.02,-19.22 c 6.82,-10.54 17.98,-19.84 24.18,-21.08 10.54,-2.48 11.16,0 7.44,17.98 -12.4,58.9 -16.12,96.72 -12.4,122.76 2.48,15.5 22.94,94.24 46.5,174.84 22.94,79.98 47.74,174.84 55.18,209.56 24.8,121.52 76.88,191.58 143.84,194.06 11.16,0 39.68,-5.58 63.24,-13.02 22.94,-6.82 47.74,-13.02 55.18,-13.02 11.78,0 11.78,0.62 1.86,11.78 -25.42,27.9 -124,45.26 -167.4,29.14 z" />
      <path
         style="fill:#ffffff;fill-opacity:1"
         id="path16"
         d="m 487.4,815.57111 c 0,-22.32 15.5,-37.82 26.04,-27.28 9.92,9.92 -1.24,40.92 -15.5,43.4 -8.06,1.86 -10.54,-1.86 -10.54,-16.12 z"
         inkscape:connector-curvature="0" />
      <path
         sodipodi:nodetypes="ccsccc"
         inkscape:connector-curvature="0"
         id="path3911"
         d="m 616.36,194.95111 c 13.64,-6.82 34.72,-24.8 47.12,-39.06 19.22,-23.56 22.32,-24.8 22.32,-12.4 0,19.84 -21.08,58.9 -47.74,88.04 -22.94,25.42 -37.89525,30.38 -50.84,17.36 -14.90044,-22.19049 13.04936,-45.36262 29.14,-53.94 z"
         style="fill:#ffffff;fill-opacity:1" />
      <path
         sodipodi:nodetypes="ssscccss"
         inkscape:connector-curvature="0"
         id="path3909"
         d="m 618.45019,367.65226 c 2.53803,-22.28851 16.31652,-47.5168 31.17063,-70.9835 23.34369,-36.87864 47.0448,-65.78766 50.11365,-114.56782 1.20677,-19.18205 -7.16501,-46.84497 0.93908,-51.77382 9.3,-5.58 19.22645,25.56399 19.22645,79.50399 -0.62,42.16 -3.72,57.04 -21.08,97.34 -22.94,53.94 -50.34703,102.30831 -69.83437,95.19203 -9.89917,-3.61493 -12.30378,-19.18162 -10.53544,-34.71088 z"
         style="fill:#ffffff;fill-opacity:1" />
      <path
         sodipodi:nodetypes="ccccccaccccccc"
         inkscape:connector-curvature="0"
         id="path3898"
         d="m 581.33,765.81611 c -54.51025,5.23038 -71.61,-44.485 -36.89,-140.585 19.84,-54.56 20.46,-58.28 20.46,-155 -0.62,-130.2 -12.4,-171.12 -87.42,-292.02 -43.4,-70.06 -33.48,-85.559999 22.94,-34.72 32.41866,34.22197 63.18499,69.76989 80.88798,110.17841 14.02301,32.6618 24.28222,67.35606 30.09202,102.48159 4.79319,28.97915 6.21939,56.90513 3.72,88.04 -4.96,60.76 -19.84,127.1 -47.12,205.22 -22.32,66.96 -24.18,93.62 -5.58,102.92 6.82,4.34 19.14252,6.4325 27.59,4.805 9.06747,-1.9375 13.175,-1.55 14.415,2.79 l -2.945,2.48 c -6.12253,3.41 -20.15,3.41 -20.15,3.41 z"
         style="fill:#ffffff;fill-opacity:1" />
      <path
         id="path20"
         d="m 610.87206,766.7404 c 10.28831,1.15835 21.60794,5.43071 58.18794,3.57071 127.72,-9.92 122.45,0.31 27.9,35.34 -24.18,8.06 -57.04,16.74 -73.78,18.6 -28.52,3.72 -29.76,3.1 -34.1,-12.4 -2.48,-10.54 -1.09602,-22.79604 4.55597,-32.16802 0,0 0.94951,-3.98344 10.26564,-13.29962"
         style="fill:#ffffff;fill-opacity:1"
         inkscape:connector-curvature="0" />
      <path
         style="fill:#ffffff;fill-opacity:1"
         id="path46"
         d="m 338.6,521.69111 c -14.26,-24.18 -16.12,-32.24 -25.42,-122.76 -8.68,-89.28 -34.72,-194.06 -63.86,-257.3 -12.4,-26.66 -21.7,-49.599999 -19.84,-50.839999 2.48,-2.48 38.44,41.539999 63.86,78.739999 48.36,71.3 73.16,143.84 83.08,245.52 7.44,73.78 4.96,112.84 -8.06,120.9 -13.02,8.68 -16.74,6.82 -29.76,-14.26 z"
         inkscape:connector-curvature="0" />
      <path
         sodipodi:nodetypes="ccscc"
         inkscape:connector-curvature="0"
         style="fill:#ffffff;fill-opacity:1"
         id="path130"
         d="m 447.72,98.231111 c -40.3,-14.26 -58.9,-24.8 -52.7,-30.38 1.24,-1.24 69.70209,9.652546 109.92915,6.062468 57.1976,-5.104619 75.45085,3.237532 53.75085,27.417531 -15.5,16.74 -56.42,15.5 -110.98,-3.099999 z" />
      <path
         style="fill:#ffffff;fill-opacity:1"
         id="path132"
         d="M 326.2,102.57111 C 287.14,97.611111 207.16,63.511111 215.22,55.451111 c 1.86,-1.86 19.84,-0.62 39.68,1.86 20.46,3.1 52.7,3.1 71.3,1.24 45.88,-5.58 55.8,-2.48 55.8,14.88 0,21.7 -22.32,33.479999 -55.8,29.139999 z"
         inkscape:connector-curvature="0" />
    </g>
    <g
       id="g3115"
       transform="matrix(0.62,0,0,-0.62,2.5226308e-6,-1777.2935)">
      <text
         sodipodi:linespacing="125%"
         id="text3100"
         style="font-size:272px;font-style:normal;font-variant:normal;font-weight:900;font-stretch:normal;text-align:start;line-height:125%;letter-spacing:0px;word-spacing:0px;writing-mode:lr-tb;text-anchor:start;fill:#ffffff;fill-opacity:1;stroke:none;font-family:Lato;-inkscape-font-specification:Lato Heavy"
         xml:space="preserve"><textPath
           id="textPath3112"
           xlink:href="#path3110"><tspan
   id="tspan3104"
   style="font-size:272px;font-style:normal;font-variant:normal;font-weight:900;font-stretch:normal;text-align:start;line-height:125%;writing-mode:lr-tb;text-anchor:start;fill:#ffffff;fill-opacity:1;font-family:Lato;-inkscape-font-specification:Lato Heavy">LinuxOS.sk</tspan></textPath></text>
      <path
         inkscape:connector-curvature="0"
         id="path3110"
         d="m 210.20773,-3212.7781 c 80.37321,-559.5229 193.44816,-569.4956 252.16079,-813.5507 104.51949,-434.4637 118.27615,-652.1985 470.52472,-647.1158"
         style="fill:none;stroke:#000000;stroke-width:0;stroke-linecap:butt;stroke-linejoin:miter;stroke-miterlimit:4;stroke-opacity:1;stroke-dasharray:none"
         sodipodi:nodetypes="csc" />
    </g>
  </g>
</svg>
