<?xml version="1.0" encoding="UTF-8"?>
<svg width="1200" height="630" version="1.1" viewBox="0 0 1200 630" xmlns="http://www.w3.org/2000/svg"><rect width="1200" height="630" fill="#3f68af" fill-opacity=".94118"/><g transform="matrix(.98545 0 0 .98545 499.04 978.19)" fill="#fff" filter="url(#filter4555)" opacity=".1"><g transform="matrix(.45315 0 0 -.45315 61.326 -167.3)" fill="#fff"><path d="m656 1376c-57-21-86-45-128-107-33-47-43-78-82-246-29-122-60-227-86-290-65.431-129.72-94.887-225-104.38-361.25-42.341-137.48-148.12-211.75-193.62-229.75-23-11-52-24-52-24s53-6.5 105 2c44 7 70 10 108 11 51 0 67 1.5 67 15 0 19-61 18-129-2-63-17.5-145.31-25.057-145.62-24.875-.78204.45151 75.625 12.375 124.62 36.875 29 10 74 37 99 60l45 41 21-31c11-17 29-32 39-34 17-4 18 0 12 29-20 95-26 156-20 198 4 25 37 152 75 282 37 129 77 282 89 338 40 196 124 309 232 313 18 0 64-9 102-21 37-11 77-21 89-21 19 0 19 1 3 19-41 45-200 73-270 47z"/><path d="m780 1282c0-36 25-61 42-44 16 16-2 66-25 70-13 3-17-3-17-26z"/><path transform="matrix(8,0,0,-8,0,1400)" d="m123.5 139.88c2.75 1.375 7 5 9.5 7.875 3.875 4.75 4.5 5 4.5 2.5 0-4-4.25-11.875-9.625-17.75-4.625-5.125-7.6402-6.125-10.25-3.5-3.0041 4.4739 2.6309 9.1457 5.875 10.875z"/><path transform="matrix(8,0,0,-8,0,1400)" d="m123.92 105.06c.5117 4.4936 3.2896 9.58 6.2844 14.311 4.7064 7.4352 9.4848 13.264 10.104 23.098.2433 3.8674-1.4446 9.4446.18933 10.438 1.875 1.125 3.8763-5.154 3.8763-16.029-.125-8.5-.75-11.5-4.25-19.625-4.625-10.875-10.151-20.627-14.08-19.192-1.9958.72882-2.4806 3.8673-2.1241 6.9982z"/><path transform="matrix(8,0,0,-8,0,1400)" d="m116.44 24.781c-10.99-1.0545-14.438 8.9688-7.4375 28.344 4 11 4.125 11.75 4.125 31.25-.125 26.25-2.5 34.5-17.625 58.875-8.75 14.125-6.75 17.25 4.625 7 6.536-6.8996 12.739-14.067 16.308-22.213 2.8272-6.585 4.8956-13.58 6.0669-20.662.96637-5.8426 1.2539-11.473.75-17.75-1-12.25-4-25.625-9.5-41.375-4.5-13.5-4.875-18.875-1.125-20.75 1.375-.875 3.8594-1.2969 5.5625-.96875 1.8281.39062 2.6562.3125 2.9062-.5625l-.59375-.5c-1.2344-.6875-4.0625-.6875-4.0625-.6875z"/><path d="m979.15 1203.2c16.594 1.8683 34.852 8.7592 93.852 5.7592 206-16 197.5.5 45 57-39 13-92 27-119 30-46 6-48 5-55-20-4-17-1.7678-36.768 7.3484-51.884 0 0 1.5315-6.4249 16.557-21.451"/><path d="m540 808c-23-39-26-52-41-198-14-144-56-313-103-415-20-43-35-80-32-82 4-4 62 67 103 127 78 115 118 232 134 396 12 119 8 182-13 195-21 14-27 11-48-23z"/><path d="m716 125c-65-23-95-40-85-49 2-2 112.42 15.569 177.31 9.7782 92.254-8.2333 121.69 5.2218 86.695 44.222-25 27-91 25-179-5z"/><path d="m520 132c-63-8-192-63-179-76 3-3 32-1 64 3 33 5 85 5 115 2 74-9 90-4 90 24 0 35-36 54-90 47z"/></g></g></svg>
