<?xml version="1.0" encoding="UTF-8"?>
<svg width="2048" height="1024" version="1.1" viewBox="0 0 2048 1024" xmlns="http://www.w3.org/2000/svg">
 <rect width="2048" height="1024" fill="#6b8fc7" stroke-linecap="round" stroke-width="1.0016"/>
 <text x="575.75983" y="604.93854" fill="#ffffff" font-family="Lato" font-size="236.6px" font-weight="900" letter-spacing="5px" stroke-width="8.2291px" word-spacing="0px" style="line-height:0%" xml:space="preserve">LinuxOS.sk</text>
 <g fill="#fff">
  <path d="m324.7 319.95c-16.275 5.9959-24.555 12.848-36.547 30.551-9.4222 13.419-12.277 22.271-23.413 70.238-8.2801 34.833-17.131 64.813-24.555 82.801-18.682 37.038-27.092 64.242-29.803 103.14-12.089 39.253-42.291 60.459-55.282 65.598-6.567 3.1407-14.847 6.8525-14.847 6.8525s15.133 1.8559 29.98-0.57104c12.563-1.9986 19.986-2.8552 30.836-3.1407 14.562 0 19.13-0.42828 19.13-4.2828 0-5.4249-17.417-5.1394-36.832 0.57104-17.988 4.9966-41.489 7.1543-41.577 7.1023-0.22329-0.12892 21.592-3.5333 35.582-10.529 8.2801-2.8552 21.128-10.564 28.266-17.131l12.848-11.706 5.9959 8.8511c3.1407 4.8538 8.2801 9.1366 11.135 9.7077 4.8538 1.1421 5.1394 0 3.4262-8.2801-5.7104-27.124-7.4235-44.541-5.7104-56.533 1.1421-7.138 10.564-43.399 21.414-80.517 10.564-36.832 21.985-80.517 25.411-96.506 11.421-55.962 35.404-88.226 66.241-89.368 5.1394 0 18.273 2.5697 29.123 5.9959 10.564 3.1407 21.985 5.9959 25.411 5.9959 5.4249 0 5.4249-0.28552 0.85656-5.4249-11.706-12.848-57.104-20.843-77.09-13.419z" stroke-width=".28552"/>
  <path d="m360.11 346.79c0 10.279 7.138 17.417 11.992 12.563 4.5683-4.5683-0.57104-18.844-7.138-19.986-3.7118-0.85656-4.8538 0.85656-4.8538 7.4235z" stroke-width=".28552"/>
  <g stroke-width="2.2842">
   <path d="m419.49 632.61c6.2814 3.1407 15.989 11.421 21.7 17.988 8.8511 10.85 10.279 11.421 10.279 5.7104 0-9.1366-9.7077-27.124-21.985-40.544-10.564-11.706-17.451-13.99-23.413-7.9946-6.8618 10.219 6.0094 20.89 13.419 24.84z"/>
   <path d="m420.45 553.08c1.1688 10.264 7.514 21.882 14.355 32.689 10.75 16.983 21.665 30.297 23.079 52.76 0.55574 8.8338-3.2997 21.573 0.43246 23.842 4.2828 2.5697 8.8541-11.773 8.8541-36.613-0.28552-19.415-1.7131-26.268-9.7077-44.827-10.564-24.84-23.186-47.115-32.161-43.838-4.5587 1.6648-5.6661 8.8335-4.8518 15.985z"/>
   <path d="m403.37 369.71c-25.103-2.4086-32.979 20.486-16.988 64.742 9.1366 25.126 9.4222 26.839 9.4222 71.38-0.28552 59.959-5.7104 78.804-40.258 134.48-19.986 32.264-15.418 39.402 10.564 15.989 14.929-15.76 29.098-32.131 37.25-50.738 6.4578-15.041 11.182-31.019 13.858-47.195 2.2074-13.345 2.8641-26.206 1.7131-40.544-2.2842-27.981-9.1366-58.532-21.7-94.507-10.279-30.836-11.135-43.114-2.5697-47.396 3.1407-1.9986 8.8155-2.9623 12.706-2.2128 4.1757 0.89224 6.0672 0.7138 6.6382-1.2848l-1.3562-1.1421c-2.8196-1.5704-9.2794-1.5704-9.2794-1.5704z"/>
  </g>
  <g stroke-width=".28552">
   <path d="m416.97 369.29c4.7379-0.53344 9.9509-2.5009 26.797-1.6444 58.817 4.5683 56.39-0.14276 12.848-16.275-11.135-3.7118-26.268-7.709-33.977-8.5656-13.134-1.7131-13.705-1.4276-15.704 5.7104-1.1421 4.8538-0.50474 10.498 2.0981 14.814 0 0 0.43727 1.8344 4.7274 6.1247"/>
   <path d="m291.58 482.13c-6.567 11.135-7.4235 14.847-11.706 56.533-3.9973 41.115-15.989 89.368-29.409 118.49-5.7104 12.277-9.9932 22.842-9.1366 23.413 1.1421 1.1421 17.702-19.13 29.409-36.261 22.271-32.835 33.691-66.241 38.26-113.07 3.4262-33.977 2.2842-51.965-3.7118-55.676-5.9959-3.9973-7.709-3.1407-13.705 6.567z"/>
   <path d="m341.83 677.14c-18.559 6.567-27.124 11.421-24.269 13.99 0.57104 0.57104 32.098-4.4453 50.626-2.7919 26.34 2.3508 34.745-1.4909 24.753-12.626-7.138-7.709-25.982-7.138-51.108 1.4276z"/>
   <path d="m285.87 675.14c-17.988 2.2842-54.82 17.988-51.108 21.7 0.85656 0.85656 9.1366 0.28552 18.273-0.85656 9.4222-1.4276 24.269-1.4276 32.835-0.57104 21.128 2.5697 25.697 1.1421 25.697-6.8525 0-9.9932-10.279-15.418-25.697-13.419z"/>
  </g>
 </g>
</svg>
