<?xml version="1.0" encoding="UTF-8" standalone="no"?>
<svg
   xmlns:dc="http://purl.org/dc/elements/1.1/"
   xmlns:cc="http://creativecommons.org/ns#"
   xmlns:rdf="http://www.w3.org/1999/02/22-rdf-syntax-ns#"
   xmlns:svg="http://www.w3.org/2000/svg"
   xmlns="http://www.w3.org/2000/svg"
   xmlns:sodipodi="http://sodipodi.sourceforge.net/DTD/sodipodi-0.dtd"
   xmlns:inkscape="http://www.inkscape.org/namespaces/inkscape"
   version="1.1"
   viewBox="0 -256 1792 1792"
   width="19px"
   height="19px"
   id="svg2"
   inkscape:version="0.92.2 5c3e80d, 2017-08-06"
   sodipodi:docname="delete.svg">
  <metadata
     id="metadata12">
    <rdf:RDF>
      <cc:Work
         rdf:about="">
        <dc:format>image/svg+xml</dc:format>
        <dc:type
           rdf:resource="http://purl.org/dc/dcmitype/StillImage" />
      </cc:Work>
    </rdf:RDF>
  </metadata>
  <defs
     id="defs10" />
  <sodipodi:namedview
     pagecolor="#ffffff"
     bordercolor="#666666"
     borderopacity="1"
     objecttolerance="10"
     gridtolerance="10"
     guidetolerance="10"
     inkscape:pageopacity="0"
     inkscape:pageshadow="2"
     inkscape:window-width="869"
     inkscape:window-height="735"
     id="namedview8"
     showgrid="true"
     inkscape:zoom="12.940788"
     inkscape:cx="8.3491071"
     inkscape:cy="6.3062313"
     inkscape:window-x="250"
     inkscape:window-y="0"
     inkscape:window-maximized="0"
     inkscape:current-layer="svg2">
    <inkscape:grid
       type="xygrid"
       id="grid3340" />
  </sodipodi:namedview>
  <g
     transform="matrix(1.0438597,0,0,-1.0404727,94.315793,1308.5038)"
     id="g4">
    <path
       d="m 1312,643 q 0,161 -87,295 L 471,185 Q 608,96 768,96 879,96 979.5,139.5 1080,183 1153,256 q 73,73 116,174.5 43,101.5 43,212.5 z m -999,-299 755,754 q -135,91 -300,91 -148,0 -273,-73 Q 370,1043 297,917 224,791 224,643 224,481 313,344 Z M 1536,643 Q 1536,486 1475,343 1414,200 1311.5,97 1209,-6 1066.5,-67 924,-128 768,-128 612,-128 469.5,-67 327,-6 224.5,97 122,200 61,343 0,486 0,643 0,800 61,942.5 122,1085 224.5,1188 q 102.5,103 245,164 142.5,61 298.5,61 156,0 298.5,-61 142.5,-61 245,-164 Q 1414,1085 1475,942.5 1536,800 1536,643 Z"
       id="path6"
       inkscape:connector-curvature="0"
       style="fill:currentColor" />
  </g>
</svg>
