<?xml version="1.0" encoding="UTF-8" standalone="no"?>
<svg
   xmlns:dc="http://purl.org/dc/elements/1.1/"
   xmlns:cc="http://creativecommons.org/ns#"
   xmlns:rdf="http://www.w3.org/1999/02/22-rdf-syntax-ns#"
   xmlns:svg="http://www.w3.org/2000/svg"
   xmlns="http://www.w3.org/2000/svg"
   xmlns:sodipodi="http://sodipodi.sourceforge.net/DTD/sodipodi-0.dtd"
   xmlns:inkscape="http://www.inkscape.org/namespaces/inkscape"
   version="1.1"
   viewBox="0 -256 19 19"
   id="svg6"
   sodipodi:docname="comments.svg"
   width="19"
   height="19"
   inkscape:version="0.92.2 5c3e80d, 2017-08-06">
  <metadata
     id="metadata12">
    <rdf:RDF>
      <cc:Work
         rdf:about="">
        <dc:format>image/svg+xml</dc:format>
        <dc:type
           rdf:resource="http://purl.org/dc/dcmitype/StillImage" />
        <dc:title></dc:title>
      </cc:Work>
    </rdf:RDF>
  </metadata>
  <defs
     id="defs10" />
  <sodipodi:namedview
     pagecolor="#ffffff"
     bordercolor="#666666"
     borderopacity="1"
     objecttolerance="10"
     gridtolerance="10"
     guidetolerance="10"
     inkscape:pageopacity="0"
     inkscape:pageshadow="2"
     inkscape:window-width="1358"
     inkscape:window-height="892"
     id="namedview8"
     showgrid="true"
     scale-x="94.31579"
     inkscape:zoom="16.857143"
     inkscape:cx="8.9543376"
     inkscape:cy="3.1120206"
     inkscape:window-x="249"
     inkscape:window-y="-2"
     inkscape:window-maximized="0"
     inkscape:current-layer="svg6"
     showguides="false">
    <inkscape:grid
       type="xygrid"
       id="grid822" />
  </sodipodi:namedview>
  <g
     transform="matrix(0.01060268,0,0,-0.01065257,0,-240.36471)"
     id="g4">
    <path
       d="M 1408,768 Q 1408,629 1314,511 1220,393 1057.5,324.5 895,256 704,256 618,256 528,272 404,184 250,144 214,135 164,128 h -3 q -11,0 -20.5,8 -9.5,8 -11.5,21 -1,3 -1,6.5 0,3.5 0.5,6.5 0.5,3 2,6 l 2.5,5 q 0,0 3.5,5.5 3.5,5.5 4,5 0.5,-0.5 4.5,5 4,5.5 4,4.5 5,6 23,25 18,19 26,29.5 8,10.5 22.5,29 Q 235,303 245.5,323 256,343 266,367 142,439 71,544 0,649 0,768 q 0,139 94,257 94,118 256.5,186.5 162.5,68.5 353.5,68.5 191,0 353.5,-68.5 Q 1220,1143 1314,1025 1408,907 1408,768 Z M 1792,512 Q 1792,392 1721,287.5 1650,183 1526,111 q 10,-24 20.5,-44 10.5,-20 25,-38.5 14.5,-18.5 22.5,-29 8,-10.5 26,-29.5 18,-19 23,-25 1,-1 4,-4.5 3,-3.5 4.5,-5 1.5,-1.5 4,-5 2.5,-3.5 3.5,-5.5 l 2.5,-5 q 0,0 2,-6 2,-6 0.5,-6.5 -1.5,-0.5 -1,-6.5 -3,-14 -13,-22 -10,-8 -22,-7 -50,7 -86,16 Q 1388,-72 1264,16 1174,0 1088,0 817,0 616,132 q 58,-4 88,-4 161,0 309,45 148,45 264,129 125,92 192,212 67,120 67,254 0,77 -23,152 129,-71 204,-178 75,-107 75,-230 z"
       id="path2"
       inkscape:connector-curvature="0"
       style="fill:currentColor" />
  </g>
</svg>
