<?xml version="1.0" encoding="UTF-8" standalone="no"?>
<svg
   xmlns:dc="http://purl.org/dc/elements/1.1/"
   xmlns:cc="http://creativecommons.org/ns#"
   xmlns:rdf="http://www.w3.org/1999/02/22-rdf-syntax-ns#"
   xmlns:svg="http://www.w3.org/2000/svg"
   xmlns="http://www.w3.org/2000/svg"
   xmlns:sodipodi="http://sodipodi.sourceforge.net/DTD/sodipodi-0.dtd"
   xmlns:inkscape="http://www.inkscape.org/namespaces/inkscape"
   version="1.1"
   viewBox="0 -256 19 19"
   id="svg6"
   sodipodi:docname="flag.svg"
   width="19"
   height="19"
   inkscape:version="0.92.2 2405546, 2018-03-11">
  <metadata
     id="metadata12">
    <rdf:RDF>
      <cc:Work
         rdf:about="">
        <dc:format>image/svg+xml</dc:format>
        <dc:type
           rdf:resource="http://purl.org/dc/dcmitype/StillImage" />
        <dc:title></dc:title>
      </cc:Work>
    </rdf:RDF>
  </metadata>
  <defs
     id="defs10" />
  <sodipodi:namedview
     pagecolor="#ffffff"
     bordercolor="#666666"
     borderopacity="1"
     objecttolerance="10"
     gridtolerance="10"
     guidetolerance="10"
     inkscape:pageopacity="0"
     inkscape:pageshadow="2"
     inkscape:window-width="1258"
     inkscape:window-height="979"
     id="namedview8"
     showgrid="true"
     inkscape:zoom="16.857143"
     inkscape:cx="10.015736"
     inkscape:cy="14.243484"
     inkscape:window-x="0"
     inkscape:window-y="0"
     inkscape:window-maximized="0"
     inkscape:current-layer="svg6">
    <inkscape:grid
       type="xygrid"
       id="grid4526" />
  </sodipodi:namedview>
  <g
     transform="matrix(0.0090145,0,0,-0.0090145,0.77887057,-241.03837)"
     id="g4">
    <path
       d="m 1664,491 v 616 q -169,-91 -306,-91 -82,0 -145,32 -100,49 -184,76.5 -84,27.5 -178,27.5 -173,0 -403,-127 V 426 q 245,113 433,113 55,0 103.5,-7.5 48.5,-7.5 98,-26 49.5,-18.5 77,-31 Q 1187,462 1242,435 l 28,-14 q 44,-22 101,-22 120,0 293,92 z M 320,1280 q 0,-35 -17.5,-64 Q 285,1187 256,1170 V -96 q 0,-14 -9,-23 -9,-9 -23,-9 h -64 q -14,0 -23,9 -9,9 -9,23 v 1266 q -29,17 -46.5,46 -17.5,29 -17.5,64 0,53 37.5,90.5 37.5,37.5 90.5,37.5 53,0 90.5,-37.5 Q 320,1333 320,1280 Z m 1472,-64 V 453 q 0,-39 -35,-57 -10,-5 -17,-9 -218,-116 -369,-116 -88,0 -158,35 l -28,14 q -64,33 -99,48 -35,15 -91,29 -56,14 -114,14 Q 779,411 645.5,367 512,323 417,265 q -15,-9 -33,-9 -16,0 -32,8 -32,19 -32,56 v 742 q 0,35 31,55 35,21 78.5,42.5 43.5,21.5 114,52 70.5,30.5 152.5,49.5 82,19 155,19 112,0 209,-31 97,-31 209,-86 38,-19 89,-19 122,0 310,112 22,12 31,17 31,16 62,-2 31,-20 31,-55 z"
       id="path2"
       inkscape:connector-curvature="0"
       style="fill:currentColor" />
  </g>
</svg>
