<?xml version="1.0" encoding="UTF-8"?>
<svg width="16" height="15" version="1.1" viewBox="0 -256 1509.1 1414.7" xmlns="http://www.w3.org/2000/svg" xmlns:cc="http://creativecommons.org/ns#" xmlns:dc="http://purl.org/dc/elements/1.1/" xmlns:rdf="http://www.w3.org/1999/02/22-rdf-syntax-ns#">
 <metadata>
  <rdf:RDF>
   <cc:Work rdf:about="">
    <dc:format>image/svg+xml</dc:format>
    <dc:type rdf:resource="http://purl.org/dc/dcmitype/StillImage"/>
    <dc:title/>
   </cc:Work>
  </rdf:RDF>
 </metadata>
 <g transform="matrix(-.84211 0 0 -.84211 1509.1 1017.3)">
  <path d="m1792 896q0-26-19-45l-512-512q-19-19-45-19t-45 19-19 45v256h-224q-98 0-175.5-6t-154-21.5-133-42.5-105.5-69.5-80-101-48.5-138.5-17.5-181q0-55 5-123 0-6 2.5-23.5t2.5-26.5q0-15-8.5-25t-23.5-10q-16 0-28 17-7 9-13 22t-13.5 30-10.5 24q-127 285-127 451 0 199 53 333 162 403 875 403h224v256q0 26 19 45t45 19 45-19l512-512q19-19 19-45z" fill="currentColor"/>
 </g>
</svg>
