<?xml version="1.0" encoding="UTF-8" standalone="no"?>
<svg
   xmlns:dc="http://purl.org/dc/elements/1.1/"
   xmlns:cc="http://creativecommons.org/ns#"
   xmlns:rdf="http://www.w3.org/1999/02/22-rdf-syntax-ns#"
   xmlns:svg="http://www.w3.org/2000/svg"
   xmlns="http://www.w3.org/2000/svg"
   xmlns:sodipodi="http://sodipodi.sourceforge.net/DTD/sodipodi-0.dtd"
   xmlns:inkscape="http://www.inkscape.org/namespaces/inkscape"
   version="1.1"
   viewBox="0 -256 19 19"
   id="svg6"
   sodipodi:docname="pencil.svg"
   width="19"
   height="19"
   inkscape:version="0.92.2 5c3e80d, 2017-08-06">
  <metadata
     id="metadata12">
    <rdf:RDF>
      <cc:Work
         rdf:about="">
        <dc:format>image/svg+xml</dc:format>
        <dc:type
           rdf:resource="http://purl.org/dc/dcmitype/StillImage" />
        <dc:title></dc:title>
      </cc:Work>
    </rdf:RDF>
  </metadata>
  <defs
     id="defs10" />
  <sodipodi:namedview
     pagecolor="#ffffff"
     bordercolor="#666666"
     borderopacity="1"
     objecttolerance="10"
     gridtolerance="10"
     guidetolerance="10"
     inkscape:pageopacity="0"
     inkscape:pageshadow="2"
     inkscape:window-width="1233"
     inkscape:window-height="707"
     id="namedview8"
     showgrid="true"
     inkscape:pagecheckerboard="false"
     inkscape:zoom="11.9198"
     inkscape:cx="11.766173"
     inkscape:cy="16.275193"
     inkscape:window-x="0"
     inkscape:window-y="0"
     inkscape:window-maximized="0"
     inkscape:current-layer="svg6">
    <inkscape:grid
       type="xygrid"
       id="grid822" />
  </sodipodi:namedview>
  <g
     transform="matrix(0.01122112,0,0,-0.01122112,1,-239.4363)"
     id="g4">
    <path
       d="M 363,0 454,91 219,326 128,235 V 128 H 256 V 0 Z m 523,928 c 0,13 -9,22 -22,22 -6,0 -12,-2 -17,-7 L 305,401 c -5,-5 -7,-11 -7,-17 0,-13 9,-22 22,-22 6,0 12,2 17,7 l 542,542 c 5,5 7,11 7,17 z M 832,1120 1248,704 416,-128 H 0 v 416 z m 683,-96 c 0,-34 -14,-67 -37,-90 l -166,-166 -416,416 166,165 c 23,24 56,38 90,38 34,0 67,-14 91,-38 l 235,-234 c 23,-24 37,-57 37,-91 z"
       id="path2"
       inkscape:connector-curvature="0"
       style="fill:currentColor" />
  </g>
</svg>
