<?xml version="1.0" encoding="UTF-8" standalone="no"?>
<!-- Created with Inkscape (http://www.inkscape.org/) -->

<svg
   xmlns:dc="http://purl.org/dc/elements/1.1/"
   xmlns:cc="http://creativecommons.org/ns#"
   xmlns:rdf="http://www.w3.org/1999/02/22-rdf-syntax-ns#"
   xmlns:svg="http://www.w3.org/2000/svg"
   xmlns="http://www.w3.org/2000/svg"
   xmlns:sodipodi="http://sodipodi.sourceforge.net/DTD/sodipodi-0.dtd"
   xmlns:inkscape="http://www.inkscape.org/namespaces/inkscape"
   id="svg2"
   version="1.1"
   inkscape:version="0.92.2 5c3e80d, 2017-08-06"
   width="20"
   height="36"
   viewBox="0 0 20 36"
   sodipodi:docname="rating_1.svg">
  <metadata
     id="metadata8">
    <rdf:RDF>
      <cc:Work
         rdf:about="">
        <dc:format>image/svg+xml</dc:format>
        <dc:type
           rdf:resource="http://purl.org/dc/dcmitype/StillImage" />
        <dc:title />
      </cc:Work>
    </rdf:RDF>
  </metadata>
  <defs
     id="defs6" />
  <sodipodi:namedview
     pagecolor="#ffffff"
     bordercolor="#666666"
     borderopacity="1"
     objecttolerance="10"
     gridtolerance="10"
     guidetolerance="10"
     inkscape:pageopacity="0"
     inkscape:pageshadow="2"
     inkscape:window-width="853"
     inkscape:window-height="696"
     id="namedview4"
     showgrid="true"
     showguides="false"
     inkscape:zoom="4.5409513"
     inkscape:cx="-4.7694284"
     inkscape:cy="12.19657"
     inkscape:window-x="26"
     inkscape:window-y="94"
     inkscape:window-maximized="0"
     inkscape:current-layer="layer1-7">
    <inkscape:grid
       type="xygrid"
       id="grid3344" />
  </sodipodi:namedview>
  <g
     id="layer1"
     transform="matrix(0.19264216,0,0,0.19393935,-62.872938,-84.912565)">
    <g
       transform="matrix(0.99999979,0,0,0.99271509,183.5716,102.23678)"
       id="layer1-7"
       inkscape:label="Layer 1">
      <g
         transform="translate(-367.10698,220.85336)"
         id="g7959">
        <path
           id="path7629"
           d="m 561.81678,167.85262 c -9.15532,25.42539 -25.55617,47.38993 -46.71875,63.40625 l 0,27.75 c 18.24846,-11.04163 34.14219,-25.61239 46.71875,-42.75 12.57657,17.13761 28.47029,31.70837 46.71875,42.75 l 0,-27.75 C 587.37295,215.24255 570.9721,193.27801 561.81678,167.85262 Z"
           style="fill:#000000;fill-opacity:1;stroke:#000000;stroke-width:0;stroke-miterlimit:4;stroke-dasharray:none;stroke-opacity:1"
           inkscape:connector-curvature="0" />
        <path
           id="path7627"
           d="m 561.81678,184.29012 c -9.80201,19.78862 -24.02909,37.02277 -41.375,50.375 l 0,12.8125 c 16.36319,-11.3349 30.44222,-25.74882 41.375,-42.40625 10.93278,16.65743 25.01184,31.07135 41.375,42.40625 l 0,-12.8125 c -17.34591,-13.35223 -31.57296,-30.58638 -41.375,-50.375 z"
           style="fill:#ffffff;fill-opacity:1;stroke:#000000;stroke-width:0;stroke-miterlimit:4;stroke-dasharray:none;stroke-opacity:1"
           sodipodi:nodetypes="ccccccc"
           inkscape:connector-curvature="0" />
      </g>
    </g>
  </g>
</svg>
