<?xml version="1.0" encoding="UTF-8" standalone="no"?>
<!-- Created with Inkscape (http://www.inkscape.org/) -->

<svg
   xmlns:dc="http://purl.org/dc/elements/1.1/"
   xmlns:cc="http://creativecommons.org/ns#"
   xmlns:rdf="http://www.w3.org/1999/02/22-rdf-syntax-ns#"
   xmlns:svg="http://www.w3.org/2000/svg"
   xmlns="http://www.w3.org/2000/svg"
   xmlns:sodipodi="http://sodipodi.sourceforge.net/DTD/sodipodi-0.dtd"
   xmlns:inkscape="http://www.inkscape.org/namespaces/inkscape"
   id="svg2"
   version="1.1"
   inkscape:version="0.92.2 5c3e80d, 2017-08-06"
   width="20"
   height="36"
   viewBox="0 0 20 36"
   sodipodi:docname="rating_4.svg">
  <metadata
     id="metadata8">
    <rdf:RDF>
      <cc:Work
         rdf:about="">
        <dc:format>image/svg+xml</dc:format>
        <dc:type
           rdf:resource="http://purl.org/dc/dcmitype/StillImage" />
        <dc:title />
      </cc:Work>
    </rdf:RDF>
  </metadata>
  <defs
     id="defs6" />
  <sodipodi:namedview
     pagecolor="#ffffff"
     bordercolor="#666666"
     borderopacity="1"
     objecttolerance="10"
     gridtolerance="10"
     guidetolerance="10"
     inkscape:pageopacity="0"
     inkscape:pageshadow="2"
     inkscape:window-width="1016"
     inkscape:window-height="883"
     id="namedview4"
     showgrid="true"
     showguides="false"
     inkscape:zoom="10.248957"
     inkscape:cx="-2.5722071"
     inkscape:cy="29.173535"
     inkscape:window-x="0"
     inkscape:window-y="0"
     inkscape:window-maximized="0"
     inkscape:current-layer="layer1">
    <inkscape:grid
       type="xygrid"
       id="grid3344" />
  </sodipodi:namedview>
  <g
     id="layer1"
     transform="matrix(0.19264212,0,0,0.19272834,-62.872858,-85.055977)">
    <path
       inkscape:connector-curvature="0"
       style="fill:#000000;fill-opacity:1;stroke:#000000;stroke-width:0;stroke-miterlimit:4;stroke-dasharray:none;stroke-opacity:1"
       id="path7686"
       d="m 378.28102,460.45621 c -9.15529,25.42539 -25.55617,47.38993 -46.71875,63.40625 l 0,58.6875 c 0.32304,0.47932 0.66272,0.93756 1,1.40625 10.18511,14.15408 26.77492,23.40627 45.53125,23.40625 0.0624,0 0.12516,2e-4 0.1875,0 0.0624,2e-4 0.12511,0 0.1875,0 18.75633,2e-5 35.34614,-9.25217 45.53125,-23.40625 0.33727,-0.46869 0.67696,-0.92693 1,-1.40625 l 0,-58.6875 C 403.83719,507.84614 387.43634,485.8816 378.28102,460.45621 Z" />
    <path
       inkscape:connector-curvature="0"
       style="fill:#ffffff;fill-opacity:1;stroke:#ffffff;stroke-width:0;stroke-miterlimit:4;stroke-dasharray:none;stroke-opacity:1"
       id="path7688"
       d="m 378.28075,530.456 c -11.96861,13.16411 -25.91245,24.48212 -41.375,33.5 l -0.0312,15.53125 c 9.02951,13.00905 24.06809,21.53126 41.09375,21.53125 17.41835,-10e-6 32.75761,-8.91891 41.71875,-22.4375 l -0.0312,-14.625 c -15.46255,-9.01788 -29.40636,-20.33589 -41.375,-33.5 z m 0,14.09375 c 10.38409,10.20017 21.9519,19.18656 34.5,26.71875 -6.98911,11.9575 -19.97098,20 -34.8125,20 -14.72096,-10e-6 -27.59642,-7.92185 -34.625,-19.71875 12.72097,-7.5865 24.42996,-16.67857 34.9375,-27 z" />
    <path
       inkscape:connector-curvature="0"
       style="fill:#ffffff;fill-opacity:1;stroke:#000000;stroke-width:0;stroke-miterlimit:4;stroke-dasharray:none;stroke-opacity:1"
       id="path7690"
       d="m 378.28102,476.89371 c -9.80201,19.78862 -24.02909,37.02277 -41.375,50.375 l 0,12.8125 c 16.36319,-11.3349 30.44222,-25.74882 41.375,-42.40625 10.93278,16.65743 25.01184,31.07135 41.375,42.40625 l 0,-12.8125 c -17.34591,-13.35223 -31.57296,-30.58638 -41.375,-50.375 z" />
    <path
       inkscape:connector-curvature="0"
       style="fill:#ffffff;fill-opacity:1;stroke:#000000;stroke-width:0;stroke-miterlimit:4;stroke-dasharray:none;stroke-opacity:1"
       id="path7692"
       d="m 378.28102,506.58121 c -11.28393,15.5519 -25.32034,28.98516 -41.375,39.59375 l 0,11.59375 c 15.63772,-9.50463 29.59998,-21.48184 41.375,-35.375 11.77503,13.89316 25.7373,25.87037 41.375,35.375 l 0,-11.59375 c -16.05466,-10.60859 -30.09105,-24.04185 -41.375,-39.59375 z" />
  </g>
</svg>
