<?xml version="1.0" encoding="UTF-8" standalone="no"?>
<svg
   xmlns:dc="http://purl.org/dc/elements/1.1/"
   xmlns:cc="http://creativecommons.org/ns#"
   xmlns:rdf="http://www.w3.org/1999/02/22-rdf-syntax-ns#"
   xmlns:svg="http://www.w3.org/2000/svg"
   xmlns="http://www.w3.org/2000/svg"
   xmlns:sodipodi="http://sodipodi.sourceforge.net/DTD/sodipodi-0.dtd"
   xmlns:inkscape="http://www.inkscape.org/namespaces/inkscape"
   version="1.1"
   viewBox="0 -256 1792 1792"
   width="19px"
   height="19px"
   id="svg2"
   inkscape:version="0.92.2 5c3e80d, 2017-08-06"
   sodipodi:docname="search.svg">
  <metadata
     id="metadata12">
    <rdf:RDF>
      <cc:Work
         rdf:about="">
        <dc:format>image/svg+xml</dc:format>
        <dc:type
           rdf:resource="http://purl.org/dc/dcmitype/StillImage" />
      </cc:Work>
    </rdf:RDF>
  </metadata>
  <defs
     id="defs10" />
  <sodipodi:namedview
     pagecolor="#ffffff"
     bordercolor="#666666"
     borderopacity="1"
     objecttolerance="10"
     gridtolerance="10"
     guidetolerance="10"
     inkscape:pageopacity="0"
     inkscape:pageshadow="2"
     inkscape:window-width="913"
     inkscape:window-height="735"
     id="namedview8"
     showgrid="true"
     inkscape:zoom="19.487305"
     inkscape:cx="-2.1416248"
     inkscape:cy="9.0600449"
     inkscape:window-x="0"
     inkscape:window-y="0"
     inkscape:window-maximized="0"
     inkscape:current-layer="svg2">
    <inkscape:grid
       type="xygrid"
       id="grid3340" />
  </sodipodi:namedview>
  <g
     transform="matrix(0.96356279,0,0,-0.96356279,94.315793,1195.0122)"
     id="g4">
    <path
       d="m 1152,704 c 0,247 -201,448 -448,448 -247,0 -448,-201 -448,-448 0,-247 201,-448 448,-448 247,0 448,201 448,448 z m 512,-832 c 0,-70 -58,-128 -128,-128 -34,0 -67,14 -90,38 L 1103,124 C 986,43 846,0 704,0 315,0 0,315 0,704 c 0,389 315,704 704,704 389,0 704,-315 704,-704 0,-142 -43,-282 -124,-399 l 343,-343 c 23,-23 37,-56 37,-90 z"
       id="path6"
       inkscape:connector-curvature="0"
       style="fill:currentColor" />
  </g>
</svg>
