<?xml version="1.0" encoding="UTF-8" standalone="no"?>
<svg
   xmlns:dc="http://purl.org/dc/elements/1.1/"
   xmlns:cc="http://creativecommons.org/ns#"
   xmlns:rdf="http://www.w3.org/1999/02/22-rdf-syntax-ns#"
   xmlns:svg="http://www.w3.org/2000/svg"
   xmlns="http://www.w3.org/2000/svg"
   xmlns:sodipodi="http://sodipodi.sourceforge.net/DTD/sodipodi-0.dtd"
   xmlns:inkscape="http://www.inkscape.org/namespaces/inkscape"
   version="1.1"
   viewBox="0 -256 1792 1792"
   width="19px"
   height="19px"
   id="svg2"
   inkscape:version="0.92.2 5c3e80d, 2017-08-06"
   sodipodi:docname="unlock.svg">
  <metadata
     id="metadata12">
    <rdf:RDF>
      <cc:Work
         rdf:about="">
        <dc:format>image/svg+xml</dc:format>
        <dc:type
           rdf:resource="http://purl.org/dc/dcmitype/StillImage" />
      </cc:Work>
    </rdf:RDF>
  </metadata>
  <defs
     id="defs10" />
  <sodipodi:namedview
     pagecolor="#ffffff"
     bordercolor="#666666"
     borderopacity="1"
     objecttolerance="10"
     gridtolerance="10"
     guidetolerance="10"
     inkscape:pageopacity="0"
     inkscape:pageshadow="2"
     inkscape:window-width="1146"
     inkscape:window-height="850"
     id="namedview8"
     showgrid="true"
     inkscape:zoom="16.060033"
     inkscape:cx="2.2776596"
     inkscape:cy="-1.4116765"
     inkscape:window-x="0"
     inkscape:window-y="0"
     inkscape:window-maximized="0"
     inkscape:current-layer="g4">
    <inkscape:grid
       type="xygrid"
       id="grid3340" />
  </sodipodi:namedview>
  <g
     transform="matrix(0.98245618,0,0,-1.0047847,377.26317,1347.3685)"
     id="g4">
    <path
       style="fill:currentColor;stroke-width:0.01053437"
       d="M 12.666016,8.8183594 H 7.3339844 V 6.7734375 c 0,-0.7528413 0.2604166,-1.397017 0.78125,-1.9296875 C 8.6360677,4.3110795 9.2638888,4.0449219 10,4.0449219 c 0.736111,0 1.363932,0.2661576 1.884766,0.7988281 C 12.216133,5.182648 12.430238,5.5719811 12.550781,6 h 2.044922 C 14.446555,5.0205759 14.020182,4.1519886 13.291016,3.40625 12.374349,2.46875 11.277778,2 10,2 8.7222221,2 7.6256511,2.46875 6.7089844,3.40625 c -0.9166667,0.9375 -1.375,2.0603689 -1.375,3.3671875 V 8.8183594 H 5 c -0.2777778,0 -0.5145399,0.099964 -0.7089844,0.2988281 C 4.0965712,9.3160512 4,9.5577059 4,9.8417969 v 6.1347651 c 0,0.284091 0.096571,0.525746 0.2910156,0.72461 C 4.4854601,16.900036 4.7222222,17 5,17 h 10 c 0.277778,0 0.51454,-0.09996 0.708984,-0.298828 C 15.903429,16.502308 16,16.260653 16,15.976562 V 9.8417969 C 16,9.5577059 15.903429,9.3160512 15.708984,9.1171875 15.51454,8.9183238 15.277778,8.8183594 15,8.8183594 h -0.333984"
       transform="matrix(95.999996,0,0,-93.866666,-384,1595.7334)"
       id="path6"
       inkscape:connector-curvature="0"
       sodipodi:nodetypes="ccssssccsssscssssssscsscsc" />
  </g>
</svg>
