<?xml version="1.0" encoding="UTF-8"?>
<svg width="103" height="24" version="1.1" viewBox="0 0 103 24" xmlns="http://www.w3.org/2000/svg">
 <g aria-label="LinuxOS.sk">
  <path d="m34.568 17.463v1.386h-5.562v-12.474h1.62v11.088z"/>
  <path d="m38.268 18.849h-1.548v-9.45h1.548zm-0.774-11.124q-0.414 0-0.72-0.27-0.288-0.288-0.288-0.756t0.288-0.738q0.306-0.288 0.72-0.288t0.702 0.288q0.306 0.27 0.306 0.738t-0.306 0.756q-0.288 0.27-0.702 0.27z"/>
  <path d="m41.392 9.669q0.666-0.198 1.44-0.324 0.774-0.144 1.422-0.144 0.702 0 1.278 0.198 0.576 0.18 0.972 0.63 0.414 0.45 0.63 1.224 0.234 0.756 0.234 1.89v5.706h-1.548v-5.58q0-1.404-0.36-2.052t-1.35-0.648q-0.522 0-1.17 0.18v8.1h-1.548z"/>
  <path d="m56.233 18.579q-0.234 0.09-0.576 0.18-0.324 0.072-0.702 0.126-0.36 0.072-0.738 0.108-0.36 0.054-0.666 0.054-0.738 0-1.35-0.18-0.612-0.162-1.044-0.594t-0.666-1.17q-0.234-0.756-0.234-1.89v-5.814h1.548v5.76q0 1.386 0.414 1.962 0.432 0.558 1.296 0.558 0.288 0 0.576-0.018 0.288-0.036 0.594-0.126v-8.136h1.548z"/>
  <path d="m62.309 13.845q0.306 0.558 0.63 1.188 0.342 0.63 0.666 1.278t0.612 1.296 0.504 1.242h-1.53q-0.36-1.044-0.846-1.98-0.468-0.954-0.936-1.782-0.45 0.828-0.918 1.782-0.45 0.936-0.81 1.98h-1.476q0.198-0.594 0.486-1.224 0.306-0.648 0.63-1.296t0.648-1.26q0.342-0.63 0.648-1.188l-2.322-4.482h1.566l1.62 3.204 1.638-3.204h1.512z"/>
  <path d="m75.189 12.621q0 1.458-0.27 2.664-0.252 1.188-0.81 2.052-0.54 0.846-1.386 1.314-0.828 0.468-1.962 0.468t-1.98-0.468q-0.828-0.468-1.386-1.314-0.54-0.864-0.81-2.052-0.27-1.206-0.27-2.664t0.27-2.664q0.27-1.206 0.81-2.052 0.558-0.864 1.386-1.332 0.846-0.486 1.98-0.486t1.962 0.486q0.846 0.468 1.386 1.332 0.558 0.846 0.81 2.052 0.27 1.206 0.27 2.664zm-1.728 0q0-1.134-0.144-2.07-0.144-0.936-0.468-1.602-0.324-0.684-0.846-1.062-0.504-0.378-1.242-0.378t-1.26 0.378q-0.504 0.378-0.828 1.062-0.324 0.666-0.486 1.602-0.144 0.936-0.144 2.07t0.144 2.07q0.162 0.936 0.486 1.602t0.828 1.044q0.522 0.36 1.26 0.36t1.242-0.36q0.522-0.378 0.846-1.044t0.468-1.602 0.144-2.07z"/>
  <path d="m79.572 17.733q0.972 0 1.494-0.54 0.54-0.54 0.54-1.458 0-0.486-0.162-0.864t-0.432-0.684q-0.252-0.306-0.594-0.558t-0.702-0.504q-0.414-0.288-0.864-0.612t-0.828-0.756q-0.36-0.432-0.594-1.008t-0.234-1.35q0-0.756 0.252-1.368 0.27-0.612 0.72-1.044 0.468-0.432 1.098-0.666 0.648-0.234 1.386-0.234 0.72 0 1.332 0.18t1.026 0.432l-0.504 1.278q-0.378-0.252-0.828-0.378-0.432-0.144-0.918-0.144-0.882 0-1.422 0.486-0.522 0.468-0.522 1.386 0 0.504 0.162 0.882 0.18 0.378 0.45 0.684 0.288 0.306 0.648 0.558 0.378 0.252 0.792 0.522t0.846 0.594 0.774 0.756q0.36 0.414 0.576 0.99 0.234 0.558 0.234 1.332 0 0.702-0.216 1.332t-0.684 1.116q-0.45 0.468-1.152 0.756-0.684 0.27-1.62 0.27-0.864 0-1.512-0.198t-1.152-0.522l0.504-1.296q0.468 0.288 0.954 0.468 0.504 0.162 1.152 0.162z"/>
  <path d="m87.196 18.021q0 0.414-0.306 0.738-0.288 0.324-0.774 0.324t-0.774-0.324-0.288-0.738q0-0.432 0.288-0.756t0.774-0.324 0.774 0.324q0.306 0.324 0.306 0.756z"/>
  <path d="m91.237 17.751q0.684 0 1.026-0.378 0.36-0.396 0.36-1.026 0-0.396-0.144-0.666-0.144-0.288-0.378-0.504t-0.54-0.378q-0.306-0.18-0.612-0.378-0.306-0.18-0.594-0.414-0.288-0.252-0.522-0.558-0.216-0.324-0.36-0.72-0.126-0.414-0.126-0.954 0-1.17 0.72-1.89 0.738-0.72 1.98-0.72 0.522 0 0.99 0.144 0.468 0.126 0.774 0.288l-0.342 1.242q-0.324-0.18-0.648-0.27t-0.702-0.09q-0.576 0-0.918 0.342-0.342 0.324-0.342 0.954 0 0.36 0.126 0.63 0.126 0.252 0.324 0.468 0.216 0.198 0.468 0.378 0.27 0.18 0.558 0.342 0.342 0.198 0.666 0.432 0.342 0.234 0.594 0.558 0.27 0.306 0.432 0.738 0.162 0.414 0.162 1.008 0 1.242-0.738 1.998-0.72 0.756-2.124 0.756-0.72 0-1.296-0.198t-0.864-0.36l0.324-1.278q0.27 0.144 0.72 0.324 0.468 0.18 1.026 0.18z"/>
  <path d="m102.23 9.399q-0.756 1.296-1.458 2.376-0.684 1.062-1.368 1.998 0.432 0.504 0.882 1.134 0.45 0.63 0.864 1.314 0.414 0.666 0.774 1.35 0.36 0.666 0.612 1.278h-1.692q-0.27-0.594-0.63-1.242-0.36-0.648-0.756-1.26-0.396-0.63-0.792-1.188t-0.738-0.936v4.626h-1.548v-13.698l1.548-0.27v8.586q0.324-0.432 0.684-0.972 0.378-0.54 0.738-1.08 0.36-0.558 0.684-1.08 0.324-0.522 0.54-0.936z"/>
 </g>
 <g transform="matrix(.063132 0 0 .063132 -8.8544 -20.019)">
  <path d="m324.7 319.95c-16.275 5.9959-24.555 12.848-36.547 30.551-9.4222 13.419-12.277 22.271-23.413 70.238-8.2801 34.833-17.131 64.813-24.555 82.801-18.682 37.038-27.092 64.242-29.803 103.14-12.089 39.253-42.291 60.459-55.282 65.598-6.567 3.1407-14.847 6.8525-14.847 6.8525s15.133 1.8559 29.98-0.57104c12.563-1.9986 19.986-2.8552 30.836-3.1407 14.562 0 19.13-0.42828 19.13-4.2828 0-5.4249-17.417-5.1394-36.832 0.57104-17.988 4.9966-41.489 7.1543-41.577 7.1023-0.22329-0.12892 21.592-3.5333 35.582-10.529 8.2801-2.8552 21.128-10.564 28.266-17.131l12.848-11.706 5.9959 8.8511c3.1407 4.8538 8.2801 9.1366 11.135 9.7077 4.8538 1.1421 5.1394 0 3.4262-8.2801-5.7104-27.124-7.4235-44.541-5.7104-56.533 1.1421-7.138 10.564-43.399 21.414-80.517 10.564-36.832 21.985-80.517 25.411-96.506 11.421-55.962 35.404-88.226 66.241-89.368 5.1394 0 18.273 2.5697 29.123 5.9959 10.564 3.1407 21.985 5.9959 25.411 5.9959 5.4249 0 5.4249-0.28552 0.85656-5.4249-11.706-12.848-57.104-20.843-77.09-13.419z"/>
  <path d="m360.11 346.79c0 10.279 7.138 17.417 11.992 12.563 4.5683-4.5683-0.57104-18.844-7.138-19.986-3.7118-0.85656-4.8538 0.85656-4.8538 7.4235z"/>
  <g>
   <path d="m419.49 632.61c6.2814 3.1407 15.989 11.421 21.7 17.988 8.8511 10.85 10.279 11.421 10.279 5.7104 0-9.1366-9.7077-27.124-21.985-40.544-10.564-11.706-17.451-13.99-23.413-7.9946-6.8618 10.219 6.0094 20.89 13.419 24.84z"/>
   <path d="m420.45 553.08c1.1688 10.264 7.514 21.882 14.355 32.689 10.75 16.983 21.665 30.297 23.079 52.76 0.55574 8.8338-3.2997 21.573 0.43246 23.842 4.2828 2.5697 8.8541-11.773 8.8541-36.613-0.28552-19.415-1.7131-26.268-9.7077-44.827-10.564-24.84-23.186-47.115-32.161-43.838-4.5587 1.6648-5.6661 8.8335-4.8518 15.985z"/>
   <path d="m403.37 369.71c-25.103-2.4086-32.979 20.486-16.988 64.742 9.1366 25.126 9.4222 26.839 9.4222 71.38-0.28552 59.959-5.7104 78.804-40.258 134.48-19.986 32.264-15.418 39.402 10.564 15.989 14.929-15.76 29.098-32.131 37.25-50.738 6.4578-15.041 11.182-31.019 13.858-47.195 2.2074-13.345 2.8641-26.206 1.7131-40.544-2.2842-27.981-9.1366-58.532-21.7-94.507-10.279-30.836-11.135-43.114-2.5697-47.396 3.1407-1.9986 8.8155-2.9623 12.706-2.2128 4.1757 0.89224 6.0672 0.7138 6.6382-1.2848l-1.3562-1.1421c-2.8196-1.5704-9.2794-1.5704-9.2794-1.5704z"/>
  </g>
  <g>
   <path d="m416.97 369.29c4.7379-0.53344 9.9509-2.5009 26.797-1.6444 58.817 4.5683 56.39-0.14276 12.848-16.275-11.135-3.7118-26.268-7.709-33.977-8.5656-13.134-1.7131-13.705-1.4276-15.704 5.7104-1.1421 4.8538-0.50474 10.498 2.0981 14.814 0 0 0.43727 1.8344 4.7274 6.1247"/>
   <path d="m291.58 482.13c-6.567 11.135-7.4235 14.847-11.706 56.533-3.9973 41.115-15.989 89.368-29.409 118.49-5.7104 12.277-9.9932 22.842-9.1366 23.413 1.1421 1.1421 17.702-19.13 29.409-36.261 22.271-32.835 33.691-66.241 38.26-113.07 3.4262-33.977 2.2842-51.965-3.7118-55.676-5.9959-3.9973-7.709-3.1407-13.705 6.567z"/>
   <path d="m341.83 677.14c-18.559 6.567-27.124 11.421-24.269 13.99 0.57104 0.57104 32.098-4.4453 50.626-2.7919 26.34 2.3508 34.745-1.4909 24.753-12.626-7.138-7.709-25.982-7.138-51.108 1.4276z"/>
   <path d="m285.87 675.14c-17.988 2.2842-54.82 17.988-51.108 21.7 0.85656 0.85656 9.1366 0.28552 18.273-0.85656 9.4222-1.4276 24.269-1.4276 32.835-0.57104 21.128 2.5697 25.697 1.1421 25.697-6.8525 0-9.9932-10.279-15.418-25.697-13.419z"/>
  </g>
 </g>
</svg>
