<?xml version="1.0" encoding="UTF-8" standalone="no"?>
<!-- Created with Inkscape (http://www.inkscape.org/) -->

<svg
   xmlns:dc="http://purl.org/dc/elements/1.1/"
   xmlns:cc="http://creativecommons.org/ns#"
   xmlns:rdf="http://www.w3.org/1999/02/22-rdf-syntax-ns#"
   xmlns:svg="http://www.w3.org/2000/svg"
   xmlns="http://www.w3.org/2000/svg"
   xmlns:sodipodi="http://sodipodi.sourceforge.net/DTD/sodipodi-0.dtd"
   xmlns:inkscape="http://www.inkscape.org/namespaces/inkscape"
   id="svg2"
   version="1.1"
   inkscape:version="0.91 r13725"
   width="16"
   height="16"
   viewBox="0 0 16 16"
   sodipodi:docname="favicon.svg">
  <metadata
     id="metadata8">
    <rdf:RDF>
      <cc:Work
         rdf:about="">
        <dc:format>image/svg+xml</dc:format>
        <dc:type
           rdf:resource="http://purl.org/dc/dcmitype/StillImage" />
        <dc:title />
      </cc:Work>
    </rdf:RDF>
  </metadata>
  <defs
     id="defs6" />
  <sodipodi:namedview
     pagecolor="#ffffff"
     bordercolor="#666666"
     borderopacity="1"
     objecttolerance="10"
     gridtolerance="10"
     guidetolerance="10"
     inkscape:pageopacity="0"
     inkscape:pageshadow="2"
     inkscape:window-width="1578"
     inkscape:window-height="880"
     id="namedview4"
     showgrid="true"
     inkscape:zoom="29.5"
     inkscape:cx="-0.67596158"
     inkscape:cy="7.1799505"
     inkscape:window-x="0"
     inkscape:window-y="18"
     inkscape:window-maximized="1"
     inkscape:current-layer="svg2">
    <inkscape:grid
       type="xygrid"
       id="grid3376" />
  </sodipodi:namedview>
  <rect
     style="opacity:1;fill:#6b8fc7;fill-opacity:1;stroke:none;stroke-width:2;stroke-linecap:round;stroke-linejoin:round;stroke-miterlimit:4;stroke-dasharray:none;stroke-opacity:1"
     id="rect3404"
     width="16"
     height="16"
     x="0"
     y="0"
     ry="2" />
  <g
     style="fill:#ffffff;fill-opacity:1;stroke:#ffffff;stroke-width:9.50789928;stroke-linecap:round;stroke-linejoin:round;stroke-miterlimit:4;stroke-dasharray:none;stroke-opacity:1"
     transform="matrix(0.01051757,0,0,-0.01051757,1.1183925,15.50009)"
     id="g6">
    <path
       d="m 656,1376 c -57,-21 -86,-45 -128,-107 -33,-47 -43,-78 -82,-246 C 417,901 386,796 360,733 294.5691,603.27719 265.11317,507.99864 255.625,371.75 213.28389,234.26804 107.5,160 62,142 39,131 10,118 10,118 c 0,0 53,-6.5 105,2 44,7 70,10 108,11 51,0 67,1.5 67,15 0,19 -61,18 -129,-2 C 98,126.5 15.690609,118.94278 15.375,119.125 14.592956,119.57651 91,131.5 140,156 c 29,10 74,37 99,60 l 45,41 21,-31 c 11,-17 29,-32 39,-34 17,-4 18,0 12,29 -20,95 -26,156 -20,198 4,25 37,152 75,282 37,129 77,282 89,338 40,196 124,309 232,313 18,0 64,-9 102,-21 37,-11 77,-21 89,-21 19,0 19,1 3,19 -41,45 -200,73 -270,47 z"
       id="path8"
       style="fill:#ffffff;fill-opacity:1;stroke:#ffffff;stroke-width:9.50789928;stroke-linecap:round;stroke-linejoin:round;stroke-miterlimit:4;stroke-dasharray:none;stroke-opacity:1"
       inkscape:connector-curvature="0"
       sodipodi:nodetypes="cccccccccscscccccccccccscc" />
    <path
       inkscape:connector-curvature="0"
       d="m 780,1282 c 0,-36 25,-61 42,-44 16,16 -2,66 -25,70 -13,3 -17,-3 -17,-26 z"
       id="path16"
       style="fill:#ffffff;fill-opacity:1;stroke:#ffffff;stroke-width:9.50789928;stroke-linecap:round;stroke-linejoin:round;stroke-miterlimit:4;stroke-dasharray:none;stroke-opacity:1" />
    <path
       style="fill:#ffffff;fill-opacity:1;stroke:#ffffff;stroke-width:1.18848741;stroke-linecap:round;stroke-linejoin:round;stroke-miterlimit:4;stroke-dasharray:none;stroke-opacity:1"
       d="m 123.5,139.875 c 2.75,1.375 7,5 9.5,7.875 3.875,4.75 4.5,5 4.5,2.5 0,-4 -4.25,-11.875 -9.625,-17.75 -4.625,-5.125 -7.64017,-6.125 -10.25,-3.5 -3.00412,4.47389 2.63092,9.14569 5.875,10.875 z"
       id="path3911"
       transform="matrix(8,0,0,-8,0,1400)"
       inkscape:connector-curvature="0"
       sodipodi:nodetypes="ccsccc" />
    <path
       style="fill:#ffffff;fill-opacity:1;stroke:#ffffff;stroke-width:1.18848741;stroke-linecap:round;stroke-linejoin:round;stroke-miterlimit:4;stroke-dasharray:none;stroke-opacity:1"
       d="m 123.92141,105.05622 c 0.5117,4.49365 3.28962,9.58 6.2844,14.31119 4.70639,7.43521 9.48484,13.26364 10.10356,23.09835 0.2433,3.86735 -1.44456,9.44455 0.18933,10.43827 1.875,1.125 3.8763,-5.15403 3.8763,-16.02903 -0.125,-8.5 -0.75,-11.5 -4.25,-19.625 -4.625,-10.875 -10.15061,-20.626675 -14.07951,-19.191942 -1.9958,0.728817 -2.4806,3.867262 -2.12408,6.998162 z"
       id="path3909"
       transform="matrix(8,0,0,-8,0,1400)"
       inkscape:connector-curvature="0"
       sodipodi:nodetypes="ssscccss" />
    <path
       style="fill:#ffffff;fill-opacity:1;stroke:#ffffff;stroke-width:1.18848741;stroke-linecap:round;stroke-linejoin:round;stroke-miterlimit:4;stroke-dasharray:none;stroke-opacity:1"
       d="M 116.4375,24.78125 C 105.44753,23.726738 102,33.75 109,53.125 c 4,11 4.125,11.75 4.125,31.25 -0.125,26.25 -2.5,34.5 -17.625,58.875 -8.75,14.125 -6.75,17.25 4.625,7 6.53602,-6.89959 12.73891,-14.06651 16.30806,-22.21339 2.82722,-6.58504 4.89561,-13.57985 6.06694,-20.66161 0.96637,-5.84257 1.25391,-11.472808 0.75,-17.75 -1,-12.25 -4,-25.625 -9.5,-41.375 -4.5,-13.5 -4.875,-18.875 -1.125,-20.75 1.375,-0.875 3.85938,-1.296875 5.5625,-0.96875 1.82812,0.390625 2.65625,0.3125 2.90625,-0.5625 l -0.59375,-0.5 c -1.23438,-0.6875 -4.0625,-0.6875 -4.0625,-0.6875 z"
       id="path3898"
       transform="matrix(8,0,0,-8,0,1400)"
       inkscape:connector-curvature="0"
       sodipodi:nodetypes="ccccccaccccccc" />
    <path
       inkscape:connector-curvature="0"
       style="fill:#ffffff;fill-opacity:1;stroke:#ffffff;stroke-width:9.50789928;stroke-linecap:round;stroke-linejoin:round;stroke-miterlimit:4;stroke-dasharray:none;stroke-opacity:1"
       d="M 979.14849,1203.2408 C 995.74253,1205.1091 1014,1212 1073,1209 c 206,-16 197.5,0.5 45,57 -39,13 -92,27 -119,30 -46,6 -48,5 -55,-20 -4,-17 -1.76777,-36.7678 7.34835,-51.8839 0,0 1.53146,-6.4249 16.55748,-21.451"
       id="path20" />
    <path
       inkscape:connector-curvature="0"
       d="M 540,808 C 517,769 514,756 499,610 485,466 443,297 396,195 c -20,-43 -35,-80 -32,-82 4,-4 62,67 103,127 78,115 118,232 134,396 12,119 8,182 -13,195 -21,14 -27,11 -48,-23 z"
       id="path46"
       style="fill:#ffffff;fill-opacity:1;stroke:#ffffff;stroke-width:9.50789928;stroke-linecap:round;stroke-linejoin:round;stroke-miterlimit:4;stroke-dasharray:none;stroke-opacity:1" />
    <path
       d="M 716,125 C 651,102 621,85 631,76 633,74 743.42273,91.568622 808.30508,85.778174 900.55928,77.544917 930,91 895,130 c -25,27 -91,25 -179,-5 z"
       id="path130"
       style="fill:#ffffff;fill-opacity:1;stroke:#ffffff;stroke-width:9.50789928;stroke-linecap:round;stroke-linejoin:round;stroke-miterlimit:4;stroke-dasharray:none;stroke-opacity:1"
       inkscape:connector-curvature="0"
       sodipodi:nodetypes="ccscc" />
    <path
       inkscape:connector-curvature="0"
       d="M 520,132 C 457,124 328,69 341,56 c 3,-3 32,-1 64,3 33,5 85,5 115,2 74,-9 90,-4 90,24 0,35 -36,54 -90,47 z"
       id="path132"
       style="fill:#ffffff;fill-opacity:1;stroke:#ffffff;stroke-width:9.50789928;stroke-linecap:round;stroke-linejoin:round;stroke-miterlimit:4;stroke-dasharray:none;stroke-opacity:1" />
  </g>
</svg>
