<?xml version="1.0" encoding="UTF-8" standalone="no"?>
<svg xmlns:dc="http://purl.org/dc/elements/1.1/" xmlns:cc="http://creativecommons.org/ns#" xmlns:rdf="http://www.w3.org/1999/02/22-rdf-syntax-ns#" xmlns:svg="http://www.w3.org/2000/svg" xmlns="http://www.w3.org/2000/svg" xmlns:xlink="http://www.w3.org/1999/xlink" xmlns:sodipodi="http://sodipodi.sourceforge.net/DTD/sodipodi-0.dtd" xmlns:inkscape="http://www.inkscape.org/namespaces/inkscape" width="16.0px" height="16.0px" viewBox="0 0 16.0 16.0" version="1.1" id="SVGRoot" sodipodi:docname="code.svg" inkscape:version="1.0.2 (e86c870879, 2021-01-15)" inkscape:export-filename="/home/mirec/Documents/Praca/python/shakal/shakal/static/images/editor_icons/code.png" inkscape:export-xdpi="96" inkscape:export-ydpi="96">
  <defs id="defs10">
    <linearGradient inkscape:collect="always" id="linearGradient860">
      <stop style="stop-color:#f9f9f9;stop-opacity:1;" offset="0" id="stop856" />
      <stop style="stop-color:#bebebe;stop-opacity:1" offset="1" id="stop858" />
    </linearGradient>
    <linearGradient inkscape:collect="always" xlink:href="#linearGradient860" id="linearGradient868" gradientUnits="userSpaceOnUse" x1="1" y1="1" x2="1" y2="14" />
    <filter style="color-interpolation-filters:sRGB;" inkscape:label="Drop Shadow" id="filter940">
      <feFlood flood-opacity="1" flood-color="rgb(0,0,0)" result="flood" id="feFlood930" />
      <feComposite in="flood" in2="SourceGraphic" operator="out" result="composite1" id="feComposite932" />
      <feGaussianBlur in="composite1" stdDeviation="0.5" result="blur" id="feGaussianBlur934" />
      <feOffset dx="0" dy="1" result="offset" id="feOffset936" />
      <feComposite in="offset" in2="SourceGraphic" operator="atop" result="fbSourceGraphic" id="feComposite938" />
      <feColorMatrix result="fbSourceGraphicAlpha" in="fbSourceGraphic" values="0 0 0 -1 0 0 0 0 -1 0 0 0 0 -1 0 0 0 0 1 0" id="feColorMatrix978" />
      <feFlood id="feFlood980" flood-opacity="1" flood-color="rgb(255,255,255)" result="flood" in="fbSourceGraphic" />
      <feComposite in2="fbSourceGraphic" id="feComposite982" in="flood" operator="in" result="composite1" />
      <feGaussianBlur id="feGaussianBlur984" in="composite1" stdDeviation="0" result="blur" />
      <feOffset id="feOffset986" dx="0" dy="1" result="offset" />
      <feComposite in2="offset" id="feComposite988" in="fbSourceGraphic" operator="over" result="composite2" />
    </filter>
    <filter style="color-interpolation-filters:sRGB;" inkscape:label="Drop Shadow" id="filter1036">
      <feFlood flood-opacity="0.2" flood-color="rgb(255,255,255)" result="flood" id="feFlood1026" />
      <feComposite in="flood" in2="SourceGraphic" operator="out" result="composite1" id="feComposite1028" />
      <feGaussianBlur in="composite1" stdDeviation="0.5" result="blur" id="feGaussianBlur1030" />
      <feOffset dx="0" dy="1" result="offset" id="feOffset1032" />
      <feComposite in="offset" in2="SourceGraphic" operator="atop" result="fbSourceGraphic" id="feComposite1034" />
      <feColorMatrix result="fbSourceGraphicAlpha" in="fbSourceGraphic" values="0 0 0 -1 0 0 0 0 -1 0 0 0 0 -1 0 0 0 0 1 0" id="feColorMatrix1062" />
      <feFlood id="feFlood1064" flood-opacity="0.5" flood-color="rgb(0,0,0)" result="flood" in="fbSourceGraphic" />
      <feComposite in2="fbSourceGraphic" id="feComposite1066" in="flood" operator="in" result="composite1" />
      <feGaussianBlur id="feGaussianBlur1068" in="composite1" stdDeviation="0" result="blur" />
      <feOffset id="feOffset1070" dx="0" dy="1" result="offset" />
      <feComposite in2="offset" id="feComposite1072" in="fbSourceGraphic" operator="over" result="composite2" />
    </filter>
  </defs>
  <sodipodi:namedview id="base" pagecolor="#ffffff" bordercolor="#666666" borderopacity="1.0" inkscape:pageopacity="0.0" inkscape:pageshadow="2" inkscape:zoom="0.25" inkscape:cx="30.0" inkscape:cy="30.0" inkscape:document-units="px" inkscape:current-layer="layer1" inkscape:document-rotation="0" showgrid="true">
    <inkscape:grid type="xygrid" id="grid19" />
  </sodipodi:namedview>
  <metadata id="metadata13">
    <rdf:RDF>
      <cc:Work rdf:about="">
        <dc:format>image/svg+xml</dc:format>
        <dc:type rdf:resource="http://purl.org/dc/dcmitype/StillImage" />
        <dc:title />
      </cc:Work>
    </rdf:RDF>
  </metadata>
  <g inkscape:label="Vrstva 1" inkscape:groupmode="layer" id="layer1">
    <path id="path871" style="font-style:normal;font-variant:normal;font-weight:normal;font-stretch:condensed;font-size:13px;line-height:125%;font-family:'Fira Sans Condensed';-inkscape-font-specification:'Fira Sans Condensed, Condensed';writing-mode:lr-tb;fill:url(#linearGradient868);fill-opacity:1;stroke-width:1.01694;stroke-linecap:round;filter:url(#filter1036)" d="M 3.1015625 1 C 1.5545625 1 1.0214844 1.603423 1.0214844 2.9570312 L 1.0214844 5.9863281 C 1.0214844 6.7234415 0.82523437 7.03125 0.24023438 7.03125 L 0.24023438 7.9960938 C 0.82523437 7.9960938 1.0214844 8.2765585 1.0214844 9.0136719 L 1.0214844 12.042969 C 1.0214844 13.396577 1.5675625 14 3.1015625 14 L 3.1015625 13.115234 C 2.3345625 13.115234 2.0605469 12.874372 2.0605469 12.164062 L 2.0605469 8.9335938 C 2.0605469 7.9686454 1.7366719 7.7281049 1.1386719 7.5136719 C 1.7366719 7.2992389 2.0605469 7.0313547 2.0605469 6.0664062 L 2.0605469 2.8359375 C 2.0605469 2.1390303 2.3345625 1.8847656 3.1015625 1.8847656 L 3.1015625 1 z M 12.919922 1 L 12.933594 1.8847656 C 13.674594 1.8847656 13.947266 2.1390303 13.947266 2.8359375 L 13.947266 6.0664062 C 13.947266 7.0313546 14.258813 7.2992389 14.882812 7.5136719 C 14.271812 7.7281048 13.947266 7.9686454 13.947266 8.9335938 L 13.947266 12.164062 C 13.947266 12.874372 13.673922 13.115234 12.919922 13.115234 L 12.919922 14 C 14.453924 14 15 13.396577 15 12.042969 L 15 9.0136719 C 15 8.2765586 15.194297 7.9960937 15.779297 7.9960938 L 15.779297 7.03125 C 15.194297 7.03125 15 6.7234415 15 5.9863281 L 15 2.9570312 C 15 1.6034232 14.453922 1 12.919922 1 z M 5.0117188 7 C 4.4208096 7 4.0273438 7.4545455 4.0273438 8 C 4.0273438 8.530303 4.4208097 9 5.0117188 9 C 5.6177794 9 6.0117188 8.530303 6.0117188 8 C 6.0117188 7.4545455 5.6177794 7 5.0117188 7 z M 7.9882812 7 C 7.4125236 7 7.0195312 7.4545455 7.0195312 8 C 7.0195312 8.530303 7.4125236 9 7.9882812 9 C 8.5943418 9 8.9882812 8.530303 8.9882812 8 C 8.9882812 7.4545455 8.5943418 7 7.9882812 7 z M 10.988281 7 C 10.397371 7 10.003906 7.4545455 10.003906 8 C 10.003906 8.530303 10.397371 9 10.988281 9 C 11.57919 9 11.972656 8.530303 11.972656 8 C 11.972656 7.4545455 11.57919 7 10.988281 7 z " />
  </g>
</svg>
